<svg width="41" height="36" viewBox="0 0 41 36" fill="none" xmlns="http://www.w3.org/2000/svg">
<path d="M12.375 7.375C14.4062 7.375 16.125 9.09375 16.125 11.125C16.125 13.2344 14.4062 14.875 12.375 14.875C10.2656 14.875 8.625 13.2344 8.625 11.125C8.625 9.09375 10.2656 7.375 12.375 7.375ZM35.4219 0.5C38.2344 0.5 40.4219 2.76562 40.4219 5.5V30.5C40.4219 33.3125 38.1562 35.5 35.4219 35.5H5.42188C2.6875 35.5 0.421875 33.3125 0.421875 30.5V5.5C0.421875 2.76562 2.6875 0.5 5.42188 0.5H35.4219ZM36.6719 30.0312V5.5C36.6719 4.875 36.125 4.25 35.4219 4.25H5.42188C4.79688 4.25 4.17188 4.875 4.17188 5.5L4.25 30.5L10.1094 23.1562C10.4219 22.8438 10.8125 22.6094 11.2812 22.6094C11.75 22.6094 12.1406 22.8438 12.4531 23.1562L15.3438 26.75L23.625 15.5C23.9375 15.1094 24.3281 14.875 24.875 14.875C25.3438 14.875 25.7344 15.1094 25.9688 15.5L36.6719 30.0312Z" fill="#ECF1F4"/>
</svg>
