<svg width="245" height="88" viewBox="0 0 245 88" fill="none" xmlns="http://www.w3.org/2000/svg">
<path d="M114.375 9.375C116.406 9.375 118.125 11.0938 118.125 13.125C118.125 15.2344 116.406 16.875 114.375 16.875C112.266 16.875 110.625 15.2344 110.625 13.125C110.625 11.0938 112.266 9.375 114.375 9.375ZM137.422 2.5C140.234 2.5 142.422 4.76562 142.422 7.5V32.5C142.422 35.3125 140.156 37.5 137.422 37.5H107.422C104.688 37.5 102.422 35.3125 102.422 32.5V7.5C102.422 4.76562 104.688 2.5 107.422 2.5H137.422ZM138.672 32.0312V7.5C138.672 6.875 138.125 6.25 137.422 6.25H107.422C106.797 6.25 106.172 6.875 106.172 7.5L106.25 32.5L112.109 25.1562C112.422 24.8438 112.812 24.6094 113.281 24.6094C113.75 24.6094 114.141 24.8438 114.453 25.1562L117.344 28.75L125.625 17.5C125.938 17.1094 126.328 16.875 126.875 16.875C127.344 16.875 127.734 17.1094 127.969 17.5L138.672 32.0312Z" fill="#ECF1F4"/>
<rect x="1" y="48.5" width="243" height="39" rx="11.5" stroke="#ECF1F4"/>
<path d="M32.1875 67.75C32.1875 68.2422 31.7773 68.6523 31.3125 68.6523H27.375V72.5898C27.375 73.0547 26.9648 73.4375 26.5 73.4375C26.0078 73.4375 25.625 73.0547 25.625 72.5898V68.6523H21.6875C21.1953 68.6523 20.8125 68.2422 20.8125 67.75C20.8125 67.2852 21.1953 66.9023 21.6875 66.9023H25.625V62.9648C25.625 62.4727 26.0078 62.0625 26.5 62.0625C26.9648 62.0625 27.375 62.4727 27.375 62.9648V66.9023H31.3125C31.7773 66.875 32.1875 67.2852 32.1875 67.75Z" fill="white"/>
<path d="M45.668 62.312H59.38V65.976H57.812V63.72H47.172V65.976H45.668V62.312ZM49.604 65.448H56.836V66.776H49.604V65.448ZM49.108 68.456H55.732V69.784H49.108V68.456ZM45.332 71.4H59.7V72.808H45.332V71.4ZM55.348 68.456H56.868C56.868 68.456 56.8627 68.4987 56.852 68.584C56.852 68.6587 56.8467 68.7493 56.836 68.856C56.8253 68.952 56.8147 69.0373 56.804 69.112C56.6867 70.52 56.5587 71.672 56.42 72.568C56.292 73.464 56.1427 74.1627 55.972 74.664C55.812 75.1547 55.6253 75.512 55.412 75.736C55.1987 75.9387 54.9747 76.0827 54.74 76.168C54.516 76.2533 54.244 76.3067 53.924 76.328C53.6467 76.3493 53.268 76.3547 52.788 76.344C52.308 76.344 51.8067 76.3333 51.284 76.312C51.2733 76.0987 51.22 75.8533 51.124 75.576C51.028 75.3093 50.9107 75.0747 50.772 74.872C51.316 74.9253 51.8333 74.9573 52.324 74.968C52.8147 74.9787 53.1667 74.984 53.38 74.984C53.5507 74.984 53.6947 74.9733 53.812 74.952C53.94 74.9307 54.0467 74.8773 54.132 74.792C54.3133 74.6427 54.4733 74.344 54.612 73.896C54.7507 73.4373 54.8787 72.7813 54.996 71.928C55.1133 71.0747 55.2253 69.992 55.332 68.68L55.348 68.456ZM49.204 63.752L50.708 63.896C50.5907 64.5893 50.452 65.3307 50.292 66.12C50.132 66.8987 49.9667 67.656 49.796 68.392C49.636 69.1173 49.4867 69.752 49.348 70.296L47.812 70.152C47.9293 69.7467 48.052 69.2827 48.18 68.76C48.308 68.2267 48.4307 67.672 48.548 67.096C48.676 66.52 48.7933 65.944 48.9 65.368C49.0173 64.792 49.1187 64.2533 49.204 63.752ZM69.828 74.44L70.82 73.464C71.4067 73.6667 72.004 73.88 72.612 74.104C73.2307 74.328 73.812 74.552 74.356 74.776C74.9107 74.9893 75.3853 75.1813 75.78 75.352L74.484 76.376C74.132 76.1947 73.7053 75.992 73.204 75.768C72.7027 75.544 72.1587 75.3147 71.572 75.08C70.996 74.856 70.4147 74.6427 69.828 74.44ZM61.396 72.12H75.636V73.384H61.396V72.12ZM61.86 62.744H75.268V64.024H61.86V62.744ZM67.668 61.48H69.268V65.464H67.668V61.48ZM65.236 67.656V68.568H71.988V67.656H65.236ZM65.236 69.464V70.376H71.988V69.464H65.236ZM65.236 65.864V66.76H71.988V65.864H65.236ZM63.764 64.92H73.524V71.32H63.764V64.92ZM65.956 73.528L67.236 74.392C66.82 74.6587 66.3347 74.9147 65.78 75.16C65.2253 75.4053 64.6493 75.6347 64.052 75.848C63.4653 76.0613 62.9053 76.2373 62.372 76.376C62.2653 76.2267 62.1107 76.0453 61.908 75.832C61.7053 75.6293 61.5187 75.4587 61.348 75.32C61.892 75.192 62.452 75.032 63.028 74.84C63.6147 74.6373 64.164 74.424 64.676 74.2C65.1987 73.9653 65.6253 73.7413 65.956 73.528ZM84.052 62.264C83.988 62.5733 83.8973 62.952 83.78 63.4C83.6733 63.8373 83.5133 64.3333 83.3 64.888C83.1187 65.336 82.8947 65.7947 82.628 66.264C82.372 66.7333 82.1053 67.16 81.828 67.544C82.0093 67.4373 82.2173 67.352 82.452 67.288C82.6973 67.2133 82.9427 67.16 83.188 67.128C83.444 67.0853 83.6733 67.064 83.876 67.064C84.516 67.064 85.0547 67.2507 85.492 67.624C85.9293 67.9867 86.148 68.5147 86.148 69.208C86.148 69.4213 86.148 69.6827 86.148 69.992C86.148 70.3013 86.1533 70.6267 86.164 70.968C86.1747 71.3093 86.18 71.6453 86.18 71.976C86.1907 72.3067 86.196 72.5947 86.196 72.84H84.676C84.6867 72.6373 84.6973 72.4027 84.708 72.136C84.7187 71.8587 84.724 71.5707 84.724 71.272C84.7347 70.9733 84.74 70.6853 84.74 70.408C84.74 70.1307 84.74 69.8853 84.74 69.672C84.7293 69.192 84.5853 68.8453 84.308 68.632C84.0307 68.4187 83.7053 68.312 83.332 68.312C82.852 68.312 82.372 68.424 81.892 68.648C81.4227 68.872 81.0173 69.144 80.676 69.464C80.452 69.688 80.2173 69.944 79.972 70.232C79.7373 70.52 79.4867 70.8347 79.22 71.176L77.844 70.152C78.58 69.4587 79.204 68.7973 79.716 68.168C80.228 67.5387 80.6493 66.9413 80.98 66.376C81.3213 65.8 81.588 65.256 81.78 64.744C81.9507 64.3067 82.0893 63.864 82.196 63.416C82.3027 62.9573 82.3667 62.5307 82.388 62.136L84.052 62.264ZM78.324 63.88C78.7507 63.944 79.22 63.992 79.732 64.024C80.244 64.0453 80.692 64.056 81.076 64.056C81.7907 64.056 82.564 64.04 83.396 64.008C84.228 63.976 85.0653 63.9227 85.908 63.848C86.7613 63.7733 87.5667 63.6667 88.324 63.528V65.016C87.7587 65.0907 87.156 65.16 86.516 65.224C85.876 65.288 85.2253 65.3413 84.564 65.384C83.9027 65.416 83.268 65.4427 82.66 65.464C82.052 65.4747 81.4973 65.48 80.996 65.48C80.772 65.48 80.5053 65.48 80.196 65.48C79.8973 65.4693 79.5827 65.4533 79.252 65.432C78.932 65.4107 78.6227 65.3947 78.324 65.384V63.88ZM90.756 68.04C90.6067 68.0933 90.4307 68.152 90.228 68.216C90.036 68.28 89.844 68.3493 89.652 68.424C89.46 68.4987 89.284 68.568 89.124 68.632C88.58 68.8453 87.9453 69.1013 87.22 69.4C86.5053 69.6987 85.7693 70.0453 85.012 70.44C84.5 70.7067 84.0573 70.9733 83.684 71.24C83.3107 71.5067 83.0173 71.784 82.804 72.072C82.6013 72.36 82.5 72.6747 82.5 73.016C82.5 73.2933 82.564 73.5173 82.692 73.688C82.82 73.8587 82.996 73.992 83.22 74.088C83.4547 74.1733 83.732 74.2373 84.052 74.28C84.3827 74.312 84.7507 74.328 85.156 74.328C85.796 74.328 86.5213 74.2907 87.332 74.216C88.1427 74.1413 88.9 74.04 89.604 73.912L89.556 75.528C89.172 75.5707 88.724 75.6133 88.212 75.656C87.7 75.7093 87.172 75.7467 86.628 75.768C86.0947 75.8 85.588 75.816 85.108 75.816C84.308 75.816 83.588 75.7413 82.948 75.592C82.308 75.4427 81.8013 75.1867 81.428 74.824C81.0547 74.4507 80.868 73.9333 80.868 73.272C80.868 72.7493 80.9853 72.28 81.22 71.864C81.4653 71.4373 81.78 71.0533 82.164 70.712C82.5587 70.3707 82.996 70.056 83.476 69.768C83.956 69.48 84.4307 69.2187 84.9 68.984C85.4013 68.7173 85.8653 68.488 86.292 68.296C86.7293 68.0933 87.1347 67.912 87.508 67.752C87.892 67.592 88.2493 67.432 88.58 67.272C88.8573 67.1547 89.1187 67.0427 89.364 66.936C89.6093 66.8187 89.8547 66.696 90.1 66.568L90.756 68.04ZM107.572 64.184C107.497 64.2693 107.407 64.3813 107.3 64.52C107.204 64.648 107.119 64.76 107.044 64.856C106.82 65.2507 106.505 65.7147 106.1 66.248C105.705 66.7813 105.252 67.32 104.74 67.864C104.239 68.3973 103.7 68.8667 103.124 69.272L101.796 68.2C102.148 67.9973 102.489 67.7573 102.82 67.48C103.161 67.192 103.476 66.8933 103.764 66.584C104.063 66.2747 104.324 65.976 104.548 65.688C104.772 65.3893 104.943 65.1227 105.06 64.888C104.911 64.888 104.655 64.888 104.292 64.888C103.94 64.888 103.513 64.888 103.012 64.888C102.521 64.888 101.993 64.888 101.428 64.888C100.873 64.888 100.319 64.888 99.764 64.888C99.2093 64.888 98.692 64.888 98.212 64.888C97.732 64.888 97.3213 64.888 96.98 64.888C96.6387 64.888 96.4093 64.888 96.292 64.888C95.972 64.888 95.6627 64.8987 95.364 64.92C95.0653 64.9307 94.7453 64.952 94.404 64.984V63.208C94.7027 63.24 95.012 63.272 95.332 63.304C95.652 63.336 95.972 63.352 96.292 63.352C96.4093 63.352 96.644 63.352 96.996 63.352C97.348 63.352 97.7693 63.352 98.26 63.352C98.7613 63.352 99.3 63.352 99.876 63.352C100.452 63.352 101.028 63.352 101.604 63.352C102.18 63.352 102.719 63.352 103.22 63.352C103.721 63.352 104.148 63.352 104.5 63.352C104.852 63.352 105.097 63.352 105.236 63.352C105.353 63.352 105.497 63.352 105.668 63.352C105.849 63.3413 106.02 63.3253 106.18 63.304C106.351 63.2827 106.479 63.2613 106.564 63.24L107.572 64.184ZM101.108 66.312C101.108 67.144 101.087 67.9333 101.044 68.68C101.001 69.4267 100.9 70.136 100.74 70.808C100.591 71.4693 100.356 72.0933 100.036 72.68C99.716 73.256 99.284 73.8 98.74 74.312C98.196 74.824 97.5027 75.2933 96.66 75.72L95.188 74.52C95.4227 74.4453 95.6733 74.344 95.94 74.216C96.2173 74.0773 96.4787 73.9173 96.724 73.736C97.3 73.3627 97.764 72.9573 98.116 72.52C98.468 72.0827 98.7293 71.6133 98.9 71.112C99.0813 70.6 99.204 70.0507 99.268 69.464C99.3427 68.8773 99.38 68.2533 99.38 67.592C99.38 67.3787 99.3747 67.1707 99.364 66.968C99.3533 66.7653 99.3267 66.5467 99.284 66.312H101.108ZM116.388 65.656C116.463 65.816 116.559 66.056 116.676 66.376C116.793 66.6853 116.916 67.0213 117.044 67.384C117.183 67.736 117.305 68.072 117.412 68.392C117.529 68.712 117.615 68.9573 117.668 69.128L116.164 69.672C116.121 69.48 116.047 69.2293 115.94 68.92C115.833 68.6 115.716 68.2693 115.588 67.928C115.46 67.576 115.332 67.24 115.204 66.92C115.087 66.6 114.98 66.344 114.884 66.152L116.388 65.656ZM122.228 66.68C122.153 66.8827 122.089 67.0587 122.036 67.208C121.993 67.3573 121.956 67.496 121.924 67.624C121.711 68.4773 121.423 69.3147 121.06 70.136C120.708 70.9573 120.249 71.7307 119.684 72.456C118.948 73.3947 118.111 74.1893 117.172 74.84C116.244 75.48 115.327 75.976 114.42 76.328L113.092 74.968C113.689 74.7973 114.308 74.552 114.948 74.232C115.588 73.912 116.201 73.528 116.788 73.08C117.385 72.632 117.903 72.136 118.34 71.592C118.703 71.1333 119.033 70.6107 119.332 70.024C119.631 69.4267 119.876 68.7973 120.068 68.136C120.26 67.464 120.393 66.792 120.468 66.12L122.228 66.68ZM112.66 66.488C112.756 66.6693 112.868 66.92 112.996 67.24C113.135 67.5493 113.273 67.8853 113.412 68.248C113.561 68.6107 113.7 68.9573 113.828 69.288C113.956 69.6187 114.057 69.896 114.132 70.12L112.612 70.68C112.548 70.4773 112.452 70.2053 112.324 69.864C112.196 69.512 112.057 69.1493 111.908 68.776C111.769 68.4027 111.631 68.0613 111.492 67.752C111.364 67.432 111.252 67.192 111.156 67.032L112.66 66.488ZM137.38 63.4C137.38 63.6773 137.476 63.912 137.668 64.104C137.86 64.296 138.095 64.392 138.372 64.392C138.649 64.392 138.884 64.296 139.076 64.104C139.279 63.912 139.38 63.6773 139.38 63.4C139.38 63.1227 139.279 62.888 139.076 62.696C138.884 62.4933 138.649 62.392 138.372 62.392C138.095 62.392 137.86 62.4933 137.668 62.696C137.476 62.888 137.38 63.1227 137.38 63.4ZM136.532 63.4C136.532 63.0587 136.612 62.7493 136.772 62.472C136.943 62.1947 137.167 61.976 137.444 61.816C137.721 61.6453 138.031 61.56 138.372 61.56C138.713 61.56 139.023 61.6453 139.3 61.816C139.577 61.976 139.801 62.1947 139.972 62.472C140.143 62.7493 140.228 63.0587 140.228 63.4C140.228 63.7413 140.143 64.0507 139.972 64.328C139.801 64.6053 139.577 64.8293 139.3 65C139.023 65.16 138.713 65.24 138.372 65.24C138.031 65.24 137.721 65.16 137.444 65C137.167 64.8293 136.943 64.6053 136.772 64.328C136.612 64.0507 136.532 63.7413 136.532 63.4ZM138.164 64.568C138.1 64.696 138.041 64.84 137.988 65C137.945 65.16 137.908 65.3253 137.876 65.496C137.78 65.9013 137.663 66.3547 137.524 66.856C137.396 67.3573 137.231 67.8747 137.028 68.408C136.836 68.9413 136.607 69.464 136.34 69.976C136.084 70.4773 135.796 70.9413 135.476 71.368C134.985 71.9867 134.431 72.5733 133.812 73.128C133.204 73.672 132.511 74.1627 131.732 74.6C130.953 75.0267 130.084 75.3947 129.124 75.704L127.748 74.2C128.793 73.9333 129.7 73.6133 130.468 73.24C131.236 72.8667 131.903 72.44 132.468 71.96C133.044 71.4693 133.556 70.9467 134.004 70.392C134.367 69.9227 134.681 69.4 134.948 68.824C135.225 68.248 135.449 67.672 135.62 67.096C135.801 66.5093 135.929 65.9707 136.004 65.48C135.844 65.48 135.567 65.48 135.172 65.48C134.777 65.48 134.313 65.48 133.78 65.48C133.247 65.48 132.687 65.48 132.1 65.48C131.513 65.48 130.953 65.48 130.42 65.48C129.887 65.48 129.412 65.48 128.996 65.48C128.591 65.48 128.303 65.48 128.132 65.48C127.791 65.48 127.471 65.4853 127.172 65.496C126.873 65.5067 126.617 65.5227 126.404 65.544V63.752C126.564 63.7627 126.74 63.7787 126.932 63.8C127.135 63.8213 127.343 63.8373 127.556 63.848C127.769 63.8587 127.961 63.864 128.132 63.864C128.281 63.864 128.516 63.864 128.836 63.864C129.167 63.864 129.551 63.864 129.988 63.864C130.425 63.864 130.884 63.864 131.364 63.864C131.855 63.864 132.34 63.864 132.82 63.864C133.311 63.864 133.764 63.864 134.18 63.864C134.607 63.864 134.969 63.864 135.268 63.864C135.577 63.864 135.785 63.864 135.892 63.864C136.031 63.864 136.191 63.8587 136.372 63.848C136.564 63.8373 136.745 63.8107 136.916 63.768L138.164 64.568ZM142.692 63.864C143.023 63.8747 143.311 63.8853 143.556 63.896C143.812 63.896 144.041 63.896 144.244 63.896C144.383 63.896 144.628 63.896 144.98 63.896C145.332 63.896 145.748 63.896 146.228 63.896C146.708 63.896 147.22 63.896 147.764 63.896C148.319 63.896 148.873 63.896 149.428 63.896C149.983 63.896 150.495 63.896 150.964 63.896C151.444 63.896 151.855 63.896 152.196 63.896C152.548 63.896 152.793 63.896 152.932 63.896C153.113 63.896 153.337 63.896 153.604 63.896C153.881 63.896 154.148 63.8907 154.404 63.88C154.393 64.0933 154.383 64.3227 154.372 64.568C154.372 64.8027 154.372 65.032 154.372 65.256C154.372 65.3733 154.372 65.592 154.372 65.912C154.372 66.2213 154.372 66.6 154.372 67.048C154.372 67.4853 154.372 67.96 154.372 68.472C154.372 68.9733 154.372 69.4747 154.372 69.976C154.372 70.4773 154.372 70.9467 154.372 71.384C154.372 71.8213 154.372 72.1947 154.372 72.504C154.372 72.8027 154.372 73.0053 154.372 73.112C154.372 73.2507 154.372 73.432 154.372 73.656C154.383 73.8693 154.388 74.088 154.388 74.312C154.388 74.536 154.388 74.728 154.388 74.888C154.399 75.048 154.404 75.144 154.404 75.176H152.66C152.671 75.1333 152.676 75.0053 152.676 74.792C152.676 74.5787 152.676 74.328 152.676 74.04C152.687 73.752 152.692 73.4853 152.692 73.24C152.692 73.1333 152.692 72.9147 152.692 72.584C152.692 72.2533 152.692 71.8533 152.692 71.384C152.692 70.9147 152.692 70.4133 152.692 69.88C152.692 69.3467 152.692 68.824 152.692 68.312C152.692 67.7893 152.692 67.32 152.692 66.904C152.692 66.4773 152.692 66.136 152.692 65.88C152.692 65.624 152.692 65.496 152.692 65.496H144.388C144.388 65.496 144.388 65.624 144.388 65.88C144.388 66.1253 144.388 66.4613 144.388 66.888C144.388 67.3147 144.388 67.784 144.388 68.296C144.388 68.808 144.388 69.3307 144.388 69.864C144.388 70.3973 144.388 70.8987 144.388 71.368C144.388 71.8373 144.388 72.2373 144.388 72.568C144.388 72.8987 144.388 73.1227 144.388 73.24C144.388 73.3893 144.388 73.5707 144.388 73.784C144.388 73.9867 144.388 74.1893 144.388 74.392C144.399 74.584 144.404 74.7547 144.404 74.904C144.415 75.0533 144.42 75.144 144.42 75.176H142.676C142.676 75.144 142.676 75.048 142.676 74.888C142.687 74.728 142.692 74.5413 142.692 74.328C142.703 74.1147 142.708 73.9013 142.708 73.688C142.719 73.464 142.724 73.272 142.724 73.112C142.724 72.9947 142.724 72.7813 142.724 72.472C142.724 72.1627 142.724 71.7893 142.724 71.352C142.724 70.904 142.724 70.4293 142.724 69.928C142.724 69.416 142.724 68.9093 142.724 68.408C142.724 67.9067 142.724 67.4373 142.724 67C142.724 66.5627 142.724 66.1893 142.724 65.88C142.724 65.5707 142.724 65.3627 142.724 65.256C142.724 65.0533 142.724 64.824 142.724 64.568C142.724 64.312 142.713 64.0773 142.692 63.864ZM153.332 72.68V74.28H143.572V72.68H153.332ZM158.052 67.864C158.233 67.8747 158.452 67.8907 158.708 67.912C158.975 67.9227 159.257 67.9333 159.556 67.944C159.865 67.9547 160.159 67.96 160.436 67.96C160.649 67.96 160.943 67.96 161.316 67.96C161.689 67.96 162.111 67.96 162.58 67.96C163.06 67.96 163.561 67.96 164.084 67.96C164.607 67.96 165.124 67.96 165.636 67.96C166.159 67.96 166.649 67.96 167.108 67.96C167.567 67.96 167.972 67.96 168.324 67.96C168.676 67.96 168.948 67.96 169.14 67.96C169.524 67.96 169.871 67.9493 170.18 67.928C170.489 67.896 170.74 67.8747 170.932 67.864V69.848C170.751 69.8373 170.495 69.8213 170.164 69.8C169.833 69.7787 169.492 69.768 169.14 69.768C168.959 69.768 168.687 69.768 168.324 69.768C167.972 69.768 167.567 69.768 167.108 69.768C166.649 69.768 166.159 69.768 165.636 69.768C165.124 69.768 164.607 69.768 164.084 69.768C163.561 69.768 163.06 69.768 162.58 69.768C162.111 69.768 161.689 69.768 161.316 69.768C160.943 69.768 160.649 69.768 160.436 69.768C159.999 69.768 159.561 69.7787 159.124 69.8C158.687 69.8107 158.329 69.8267 158.052 69.848V67.864ZM183.172 63.32C183.321 63.5227 183.487 63.768 183.668 64.056C183.849 64.3333 184.025 64.6213 184.196 64.92C184.367 65.208 184.511 65.48 184.628 65.736L183.508 66.232C183.369 65.9227 183.225 65.6347 183.076 65.368C182.927 65.0907 182.772 64.8187 182.612 64.552C182.452 64.2853 182.281 64.0293 182.1 63.784L183.172 63.32ZM185.188 62.488C185.337 62.68 185.503 62.9147 185.684 63.192C185.865 63.4693 186.047 63.7573 186.228 64.056C186.409 64.344 186.564 64.6053 186.692 64.84L185.588 65.384C185.439 65.0747 185.284 64.7867 185.124 64.52C184.975 64.2533 184.815 63.992 184.644 63.736C184.473 63.48 184.297 63.2293 184.116 62.984L185.188 62.488ZM177.236 73.752C177.236 73.5813 177.236 73.2667 177.236 72.808C177.236 72.3493 177.236 71.8107 177.236 71.192C177.236 70.5733 177.236 69.9227 177.236 69.24C177.236 68.5573 177.236 67.9013 177.236 67.272C177.236 66.632 177.236 66.0667 177.236 65.576C177.236 65.0853 177.236 64.728 177.236 64.504C177.236 64.248 177.22 63.9547 177.188 63.624C177.167 63.2827 177.135 62.9787 177.092 62.712H179.06C179.039 62.968 179.012 63.2613 178.98 63.592C178.948 63.912 178.932 64.216 178.932 64.504C178.932 64.856 178.932 65.3093 178.932 65.864C178.932 66.4187 178.932 67.016 178.932 67.656C178.932 68.296 178.932 68.9413 178.932 69.592C178.943 70.232 178.948 70.84 178.948 71.416C178.948 71.992 178.948 72.488 178.948 72.904C178.948 73.32 178.948 73.6027 178.948 73.752C178.948 73.912 178.948 74.1147 178.948 74.36C178.959 74.6053 178.975 74.856 178.996 75.112C179.028 75.368 179.049 75.5973 179.06 75.8H177.108C177.14 75.512 177.167 75.176 177.188 74.792C177.22 74.408 177.236 74.0613 177.236 73.752ZM178.58 66.888C179.103 67.0373 179.684 67.224 180.324 67.448C180.975 67.6613 181.631 67.8907 182.292 68.136C182.964 68.3813 183.593 68.632 184.18 68.888C184.777 69.1333 185.284 69.3573 185.7 69.56L184.996 71.288C184.548 71.0533 184.041 70.8133 183.476 70.568C182.921 70.312 182.351 70.0667 181.764 69.832C181.177 69.5973 180.607 69.384 180.052 69.192C179.508 69 179.017 68.8347 178.58 68.696V66.888ZM198.724 62.232C198.713 62.296 198.697 62.408 198.676 62.568C198.665 62.728 198.655 62.888 198.644 63.048C198.633 63.208 198.628 63.3253 198.628 63.4C198.617 63.6027 198.607 63.8853 198.596 64.248C198.596 64.6 198.596 64.9893 198.596 65.416C198.596 65.8427 198.596 66.2747 198.596 66.712C198.607 67.1387 198.612 67.544 198.612 67.928C198.623 68.3013 198.628 68.616 198.628 68.872L197.076 68.232C197.076 68.0613 197.076 67.8213 197.076 67.512C197.076 67.192 197.071 66.8347 197.06 66.44C197.06 66.0347 197.055 65.6347 197.044 65.24C197.044 64.8453 197.039 64.4827 197.028 64.152C197.028 63.8213 197.023 63.5707 197.012 63.4C196.991 63.144 196.964 62.904 196.932 62.68C196.911 62.456 196.895 62.3067 196.884 62.232H198.724ZM189.972 64.36C190.431 64.3493 190.943 64.3387 191.508 64.328C192.084 64.3173 192.692 64.3067 193.332 64.296C193.972 64.2747 194.607 64.2587 195.236 64.248C195.876 64.2267 196.484 64.216 197.06 64.216C197.636 64.2053 198.148 64.2 198.596 64.2C199.055 64.2 199.524 64.2 200.004 64.2C200.484 64.2 200.943 64.2 201.38 64.2C201.817 64.2 202.212 64.2 202.564 64.2C202.927 64.2 203.209 64.2 203.412 64.2L203.38 65.704C202.921 65.6827 202.297 65.6667 201.508 65.656C200.729 65.6347 199.748 65.624 198.564 65.624C197.86 65.624 197.135 65.6293 196.388 65.64C195.641 65.6507 194.889 65.672 194.132 65.704C193.385 65.7253 192.66 65.752 191.956 65.784C191.263 65.816 190.617 65.8533 190.02 65.896L189.972 64.36ZM198.484 69.032C198.484 69.8213 198.377 70.4773 198.164 71C197.961 71.512 197.668 71.9013 197.284 72.168C196.9 72.424 196.436 72.552 195.892 72.552C195.561 72.552 195.236 72.4933 194.916 72.376C194.607 72.2587 194.319 72.0827 194.052 71.848C193.796 71.6027 193.588 71.3093 193.428 70.968C193.279 70.616 193.204 70.216 193.204 69.768C193.204 69.2027 193.337 68.7067 193.604 68.28C193.881 67.8427 194.244 67.5013 194.692 67.256C195.151 67.0107 195.647 66.888 196.18 66.888C196.841 66.888 197.391 67.0373 197.828 67.336C198.276 67.6347 198.612 68.04 198.836 68.552C199.06 69.0533 199.172 69.624 199.172 70.264C199.172 70.7867 199.092 71.3307 198.932 71.896C198.772 72.4507 198.505 72.9893 198.132 73.512C197.759 74.0347 197.252 74.5147 196.612 74.952C195.983 75.3787 195.193 75.7307 194.244 76.008L192.884 74.664C193.599 74.5147 194.244 74.3173 194.82 74.072C195.396 73.816 195.892 73.5067 196.308 73.144C196.724 72.7707 197.044 72.3333 197.268 71.832C197.503 71.32 197.62 70.728 197.62 70.056C197.62 69.416 197.476 68.952 197.188 68.664C196.911 68.376 196.569 68.232 196.164 68.232C195.919 68.232 195.684 68.2907 195.46 68.408C195.236 68.5253 195.055 68.696 194.916 68.92C194.777 69.144 194.708 69.416 194.708 69.736C194.708 70.184 194.852 70.536 195.14 70.792C195.439 71.0373 195.78 71.16 196.164 71.16C196.473 71.16 196.735 71.0747 196.948 70.904C197.172 70.7227 197.327 70.4453 197.412 70.072C197.497 69.688 197.476 69.2027 197.348 68.616L198.484 69.032ZM208.18 63.032C208.383 63.0533 208.596 63.0693 208.82 63.08C209.055 63.0907 209.268 63.096 209.46 63.096C209.62 63.096 209.876 63.096 210.228 63.096C210.591 63.0853 210.996 63.0747 211.444 63.064C211.903 63.0533 212.356 63.0427 212.804 63.032C213.252 63.0107 213.652 62.9893 214.004 62.968C214.367 62.9467 214.633 62.9307 214.804 62.92C215.092 62.8987 215.311 62.8773 215.46 62.856C215.62 62.8347 215.743 62.808 215.828 62.776L216.708 63.928C216.548 64.0347 216.383 64.1413 216.212 64.248C216.041 64.3547 215.871 64.4773 215.7 64.616C215.497 64.7653 215.231 64.9733 214.9 65.24C214.58 65.496 214.233 65.784 213.86 66.104C213.487 66.4133 213.119 66.7173 212.756 67.016C212.393 67.3147 212.068 67.5813 211.78 67.816C212.1 67.7093 212.42 67.64 212.74 67.608C213.06 67.5653 213.38 67.544 213.7 67.544C214.585 67.544 215.38 67.7147 216.084 68.056C216.788 68.3973 217.343 68.856 217.748 69.432C218.153 70.008 218.356 70.6747 218.356 71.432C218.356 72.2747 218.132 73.0267 217.684 73.688C217.247 74.3493 216.607 74.8667 215.764 75.24C214.932 75.6133 213.919 75.8 212.724 75.8C211.988 75.8 211.343 75.6987 210.788 75.496C210.233 75.2933 209.801 75.0107 209.492 74.648C209.193 74.2747 209.044 73.848 209.044 73.368C209.044 72.9733 209.151 72.6053 209.364 72.264C209.588 71.912 209.897 71.6347 210.292 71.432C210.697 71.2187 211.161 71.112 211.684 71.112C212.409 71.112 213.012 71.2613 213.492 71.56C213.983 71.848 214.356 72.232 214.612 72.712C214.879 73.192 215.023 73.7147 215.044 74.28L213.588 74.488C213.556 73.848 213.369 73.3253 213.028 72.92C212.697 72.5147 212.249 72.312 211.684 72.312C211.343 72.312 211.06 72.4027 210.836 72.584C210.623 72.7653 210.516 72.9787 210.516 73.224C210.516 73.576 210.692 73.8533 211.044 74.056C211.407 74.2587 211.871 74.36 212.436 74.36C213.343 74.36 214.116 74.248 214.756 74.024C215.396 73.7893 215.881 73.4533 216.212 73.016C216.543 72.568 216.708 72.0293 216.708 71.4C216.708 70.8987 216.559 70.4507 216.26 70.056C215.961 69.6613 215.551 69.3573 215.028 69.144C214.505 68.92 213.908 68.808 213.236 68.808C212.596 68.808 212.009 68.8827 211.476 69.032C210.953 69.1707 210.463 69.3787 210.004 69.656C209.545 69.9227 209.092 70.2587 208.644 70.664C208.207 71.0587 207.753 71.512 207.284 72.024L206.116 70.84C206.436 70.584 206.788 70.296 207.172 69.976C207.556 69.656 207.94 69.336 208.324 69.016C208.719 68.6853 209.087 68.376 209.428 68.088C209.78 67.7893 210.073 67.544 210.308 67.352C210.532 67.1707 210.804 66.952 211.124 66.696C211.444 66.4293 211.775 66.152 212.116 65.864C212.457 65.576 212.783 65.304 213.092 65.048C213.401 64.7813 213.657 64.5573 213.86 64.376C213.689 64.3867 213.455 64.3973 213.156 64.408C212.857 64.4187 212.527 64.4347 212.164 64.456C211.812 64.4667 211.455 64.4827 211.092 64.504C210.729 64.5147 210.399 64.5307 210.1 64.552C209.801 64.5627 209.572 64.5733 209.412 64.584C209.22 64.5947 209.017 64.6107 208.804 64.632C208.601 64.6427 208.409 64.6587 208.228 64.68L208.18 63.032Z" fill="white"/>
</svg>
