<svg width="33" height="32" viewBox="0 0 33 32" fill="none" xmlns="http://www.w3.org/2000/svg">
<path d="M25.9935 4.00016H20.4202C19.8602 2.4535 18.3935 1.3335 16.6602 1.3335C14.9268 1.3335 13.4602 2.4535 12.9002 4.00016H7.32682C5.86016 4.00016 4.66016 5.20016 4.66016 6.66683V25.3335C4.66016 26.8002 5.86016 28.0002 7.32682 28.0002H25.9935C27.4602 28.0002 28.6602 26.8002 28.6602 25.3335V6.66683C28.6602 5.20016 27.4602 4.00016 25.9935 4.00016ZM16.6602 4.00016C17.3935 4.00016 17.9935 4.60016 17.9935 5.3335C17.9935 6.06683 17.3935 6.66683 16.6602 6.66683C15.9268 6.66683 15.3268 6.06683 15.3268 5.3335C15.3268 4.60016 15.9268 4.00016 16.6602 4.00016ZM13.0468 21.7202L9.59349 18.2668C9.07349 17.7468 9.07349 16.9068 9.59349 16.3868C10.1135 15.8668 10.9535 15.8668 11.4735 16.3868L13.9935 18.8935L21.8335 11.0535C22.3535 10.5335 23.1935 10.5335 23.7135 11.0535C24.2335 11.5735 24.2335 12.4135 23.7135 12.9335L14.9268 21.7202C14.4202 22.2402 13.5668 22.2402 13.0468 21.7202Z" fill="#BDBDBD"/>
</svg>
