<svg width="771" height="136" viewBox="0 0 771 136" fill="none" xmlns="http://www.w3.org/2000/svg">
<path d="M7.40655 135.089C4.47327 133.873 2.12696 131.527 0.91057 128.593L1.37243 128.402C0.810432 127.047 0.5 125.56 0.5 124V118.4H0V107.2H0.5V96H0V84.8H0.5V73.6H0V62.4H0.5V51.2H0V40H0.5V28.8H0V17.6H0.5V12C0.5 10.4398 0.810432 8.95332 1.37243 7.59808L0.910566 7.40655C2.12695 4.47326 4.47326 2.12695 7.40655 0.910567L7.59807 1.37243C8.95332 0.810432 10.4398 0.5 12 0.5H17.1875V0H27.5625V0.5H37.9375V0H48.3125V0.5H58.6875V0H69.0625V0.5H79.4375V0H89.8125V0.5H100.188V0H110.562V0.5H120.937V0H131.312V0.5H141.688V0H152.062V0.5H162.438V0H172.813V0.5H183.188V0H193.563V0.5H203.937V0H214.312V0.5H224.687V0H235.062V0.5H245.438V0H255.812V0.5H266.188V0H276.562V0.5H286.938V0H297.312V0.5H307.688V0H318.062V0.5H328.438V0H338.812V0.5H349.188V0H359.562V0.5H369.938V0H380.313V0.5H390.688V0H401.062V0.5H411.438V0H421.812V0.5H432.188V0H442.562V0.5H452.938V0H463.312V0.5H473.688V0H484.062V0.5H494.438V0H504.812V0.5H515.188V0H525.562V0.5H535.938V0H546.312V0.5H556.688V0H567.062V0.5H577.438V0H587.812V0.5H598.188V0H608.562V0.5H618.938V0H629.312V0.5H639.688V0H650.062V0.5H660.438V0H670.812V0.5H681.188V0H691.562V0.5H701.938V0H712.312V0.5H722.688V0H733.062V0.5H743.438V0H753.812V0.5H759C760.56 0.5 762.047 0.810431 763.402 1.37243L763.593 0.910559C766.527 2.12694 768.873 4.47325 770.089 7.40654L769.628 7.59807C770.19 8.95332 770.5 10.4398 770.5 12V17.6H771V28.8H770.5V40H771V51.2H770.5V62.4H771V73.6H770.5V84.8H771V96H770.5V107.2H771V118.4H770.5V124C770.5 125.56 770.19 127.047 769.628 128.402L770.089 128.593C768.873 131.527 766.527 133.873 763.593 135.089L763.402 134.628C762.047 135.19 760.56 135.5 759 135.5H753.812V136H743.438V135.5H733.062V136H722.688V135.5H712.312V136H701.938V135.5H691.562V136H681.188V135.5H670.812V136H660.438V135.5H650.062V136H639.688V135.5H629.312V136H618.938V135.5H608.562V136H598.188V135.5H587.812V136H577.438V135.5H567.062V136H556.688V135.5H546.312V136H535.938V135.5H525.562V136H515.188V135.5H504.812V136H494.438V135.5H484.062V136H473.688V135.5H463.312V136H452.938V135.5H442.562V136H432.188V135.5H421.812V136H411.438V135.5H401.062V136H390.687V135.5H380.312V136H369.938V135.5H359.562V136H349.188V135.5H338.812V136H328.438V135.5H318.062V136H307.688V135.5H297.312V136H286.938V135.5H276.562V136H266.188V135.5H255.812V136H245.438V135.5H235.062V136H224.687V135.5H214.313V136H203.938V135.5H193.562V136H183.188V135.5H172.812V136H162.438V135.5H152.062V136H141.688V135.5H131.312V136H120.938V135.5H110.562V136H100.188V135.5H89.8125V136H79.4375V135.5H69.0625V136H58.6875V135.5H48.3125V136H37.9375V135.5H27.5625V136H17.1875V135.5H12C10.4398 135.5 8.95332 135.19 7.59808 134.628L7.40655 135.089Z" stroke="#ECF1F4" stroke-dasharray="10.27 10.27"/>
</svg>
