<svg width="276" height="40" viewBox="0 0 276 40" fill="none" xmlns="http://www.w3.org/2000/svg">
<rect x="0.5" y="0.5" width="275" height="39" rx="11.5" stroke="#ECF1F4"/>
<path d="M31.6875 19.75C31.6875 20.2422 31.2773 20.6523 30.8125 20.6523H26.875V24.5898C26.875 25.0547 26.4648 25.4375 26 25.4375C25.5078 25.4375 25.125 25.0547 25.125 24.5898V20.6523H21.1875C20.6953 20.6523 20.3125 20.2422 20.3125 19.75C20.3125 19.2852 20.6953 18.9023 21.1875 18.9023H25.125V14.9648C25.125 14.4727 25.5078 14.0625 26 14.0625C26.4648 14.0625 26.875 14.4727 26.875 14.9648V18.9023H30.8125C31.2773 18.875 31.6875 19.2852 31.6875 19.75Z" fill="white"/>
<path d="M57.968 16.36C57.9147 16.488 57.8613 16.6373 57.808 16.808C57.7653 16.968 57.7227 17.128 57.68 17.288C57.5947 17.6933 57.4827 18.1467 57.344 18.648C57.2053 19.1493 57.0347 19.6667 56.832 20.2C56.64 20.7333 56.416 21.256 56.16 21.768C55.904 22.2693 55.616 22.7333 55.296 23.16C54.8053 23.7893 54.2507 24.376 53.632 24.92C53.024 25.464 52.3307 25.9547 51.552 26.392C50.7733 26.8187 49.8987 27.1867 48.928 27.496L47.552 25.992C48.608 25.736 49.52 25.4213 50.288 25.048C51.056 24.664 51.7227 24.232 52.288 23.752C52.864 23.2613 53.3707 22.7387 53.808 22.184C54.1813 21.7147 54.5013 21.192 54.768 20.616C55.0347 20.04 55.2587 19.464 55.44 18.888C55.6213 18.3013 55.744 17.7627 55.808 17.272C55.6587 17.272 55.3813 17.272 54.976 17.272C54.5813 17.272 54.1173 17.272 53.584 17.272C53.0507 17.272 52.4907 17.272 51.904 17.272C51.328 17.272 50.768 17.272 50.224 17.272C49.6907 17.272 49.2213 17.272 48.816 17.272C48.4107 17.272 48.1227 17.272 47.952 17.272C47.6107 17.272 47.2853 17.2773 46.976 17.288C46.6773 17.2987 46.4267 17.3147 46.224 17.336V15.544C46.3733 15.5653 46.5493 15.5867 46.752 15.608C46.9547 15.6187 47.1627 15.6347 47.376 15.656C47.5893 15.6667 47.7813 15.672 47.952 15.672C48.1013 15.672 48.336 15.672 48.656 15.672C48.9867 15.672 49.3653 15.672 49.792 15.672C50.2293 15.672 50.6933 15.672 51.184 15.672C51.6747 15.672 52.16 15.672 52.64 15.672C53.1307 15.672 53.584 15.672 54 15.672C54.4267 15.672 54.7893 15.672 55.088 15.672C55.3867 15.672 55.5947 15.672 55.712 15.672C55.8507 15.672 56.0107 15.6667 56.192 15.656C56.384 15.6347 56.5653 15.6027 56.736 15.56L57.968 16.36ZM67.888 17.656C67.9627 17.816 68.0587 18.056 68.176 18.376C68.2933 18.6853 68.416 19.0213 68.544 19.384C68.6827 19.736 68.8053 20.072 68.912 20.392C69.0293 20.712 69.1147 20.9573 69.168 21.128L67.664 21.672C67.6213 21.48 67.5467 21.2293 67.44 20.92C67.3333 20.6 67.216 20.2693 67.088 19.928C66.96 19.576 66.832 19.24 66.704 18.92C66.5867 18.6 66.48 18.344 66.384 18.152L67.888 17.656ZM73.728 18.68C73.6533 18.8827 73.5893 19.0587 73.536 19.208C73.4933 19.3573 73.456 19.496 73.424 19.624C73.2107 20.4773 72.9227 21.3147 72.56 22.136C72.208 22.9573 71.7493 23.7307 71.184 24.456C70.448 25.3947 69.6107 26.1893 68.672 26.84C67.744 27.48 66.8267 27.976 65.92 28.328L64.592 26.968C65.1893 26.7973 65.808 26.552 66.448 26.232C67.088 25.912 67.7013 25.528 68.288 25.08C68.8853 24.632 69.4027 24.136 69.84 23.592C70.2027 23.1333 70.5333 22.6107 70.832 22.024C71.1307 21.4267 71.376 20.7973 71.568 20.136C71.76 19.464 71.8933 18.792 71.968 18.12L73.728 18.68ZM64.16 18.488C64.256 18.6693 64.368 18.92 64.496 19.24C64.6347 19.5493 64.7733 19.8853 64.912 20.248C65.0613 20.6107 65.2 20.9573 65.328 21.288C65.456 21.6187 65.5573 21.896 65.632 22.12L64.112 22.68C64.048 22.4773 63.952 22.2053 63.824 21.864C63.696 21.512 63.5573 21.1493 63.408 20.776C63.2693 20.4027 63.1307 20.0613 62.992 19.752C62.864 19.432 62.752 19.192 62.656 19.032L64.16 18.488ZM82.736 19.592C83.2373 19.8907 83.776 20.2267 84.352 20.6C84.928 20.9627 85.504 21.3467 86.08 21.752C86.656 22.1467 87.2 22.5307 87.712 22.904C88.2347 23.2773 88.6827 23.624 89.056 23.944L87.872 25.352C87.5093 25.0213 87.072 24.6533 86.56 24.248C86.0587 23.8427 85.5147 23.4267 84.928 23C84.352 22.5733 83.776 22.168 83.2 21.784C82.6347 21.3893 82.112 21.0373 81.632 20.728L82.736 19.592ZM90.144 16.76C90.0693 16.888 89.9893 17.048 89.904 17.24C89.8293 17.4213 89.7653 17.592 89.712 17.752C89.552 18.264 89.3333 18.8293 89.056 19.448C88.7893 20.0667 88.464 20.696 88.08 21.336C87.7067 21.9653 87.2853 22.5733 86.816 23.16C86.08 24.0667 85.1733 24.936 84.096 25.768C83.0293 26.5893 81.7387 27.288 80.224 27.864L78.768 26.584C79.8133 26.264 80.7413 25.8747 81.552 25.416C82.3733 24.9573 83.0987 24.4613 83.728 23.928C84.3573 23.384 84.9067 22.8347 85.376 22.28C85.7707 21.8107 86.1333 21.2987 86.464 20.744C86.8053 20.1893 87.0987 19.6347 87.344 19.08C87.6 18.5253 87.7813 18.024 87.888 17.576H82.176L82.784 16.136H87.648C87.872 16.136 88.0907 16.12 88.304 16.088C88.5173 16.056 88.6987 16.0133 88.848 15.96L90.144 16.76ZM84.8 14.392C84.64 14.6267 84.48 14.8827 84.32 15.16C84.1707 15.4373 84.0533 15.656 83.968 15.816C83.6267 16.4133 83.1893 17.0693 82.656 17.784C82.1333 18.4987 81.5307 19.2027 80.848 19.896C80.1653 20.5787 79.4187 21.2027 78.608 21.768L77.248 20.712C78.176 20.136 78.9707 19.5173 79.632 18.856C80.304 18.1947 80.864 17.5493 81.312 16.92C81.76 16.2907 82.112 15.736 82.368 15.256C82.464 15.096 82.5707 14.8773 82.688 14.6C82.816 14.312 82.912 14.0507 82.976 13.816L84.8 14.392ZM93.552 19.864C93.7333 19.8747 93.952 19.8907 94.208 19.912C94.4747 19.9227 94.7573 19.9333 95.056 19.944C95.3653 19.9547 95.6587 19.96 95.936 19.96C96.1493 19.96 96.4427 19.96 96.816 19.96C97.1893 19.96 97.6107 19.96 98.08 19.96C98.56 19.96 99.0613 19.96 99.584 19.96C100.107 19.96 100.624 19.96 101.136 19.96C101.659 19.96 102.149 19.96 102.608 19.96C103.067 19.96 103.472 19.96 103.824 19.96C104.176 19.96 104.448 19.96 104.64 19.96C105.024 19.96 105.371 19.9493 105.68 19.928C105.989 19.896 106.24 19.8747 106.432 19.864V21.848C106.251 21.8373 105.995 21.8213 105.664 21.8C105.333 21.7787 104.992 21.768 104.64 21.768C104.459 21.768 104.187 21.768 103.824 21.768C103.472 21.768 103.067 21.768 102.608 21.768C102.149 21.768 101.659 21.768 101.136 21.768C100.624 21.768 100.107 21.768 99.584 21.768C99.0613 21.768 98.56 21.768 98.08 21.768C97.6107 21.768 97.1893 21.768 96.816 21.768C96.4427 21.768 96.1493 21.768 95.936 21.768C95.4987 21.768 95.0613 21.7787 94.624 21.8C94.1867 21.8107 93.8293 21.8267 93.552 21.848V19.864ZM110.192 25.928H121.792V27.368H110.192V25.928ZM108.864 14.504H123.136V15.928H108.864V14.504ZM109.36 17.288H110.848V28.344H109.36V17.288ZM121.2 17.288H122.672V28.312H121.2V17.288ZM115.184 14.92H116.704V18.104H115.184V14.92ZM115.28 18.056H116.608V24.232H115.28V18.056ZM113.392 21.688V23.48H118.512V21.688H113.392ZM113.392 18.744V20.504H118.512V18.744H113.392ZM112.144 17.496H119.824V24.728H112.144V17.496ZM131.456 13.512L132.912 13.768C132.485 14.536 131.968 15.304 131.36 16.072C130.752 16.84 130.027 17.5547 129.184 18.216C129.067 18.0667 128.896 17.9067 128.672 17.736C128.459 17.5653 128.267 17.4373 128.096 17.352C128.619 16.9787 129.093 16.5733 129.52 16.136C129.957 15.6987 130.336 15.256 130.656 14.808C130.987 14.3493 131.253 13.9173 131.456 13.512ZM131.728 14.504H135.456V15.624H130.832L131.728 14.504ZM130.736 17.736V19.288H137.392V17.736H130.736ZM129.36 16.68H138.848V20.36H129.36V16.68ZM133.312 17.128H134.672V19.784H133.312V17.128ZM133.456 19.4L134.624 19.88C134.187 20.296 133.669 20.696 133.072 21.08C132.475 21.4533 131.851 21.8 131.2 22.12C130.549 22.44 129.909 22.712 129.28 22.936C129.227 22.8507 129.147 22.744 129.04 22.616C128.944 22.488 128.843 22.36 128.736 22.232C128.629 22.104 128.528 21.9973 128.432 21.912C129.051 21.7413 129.669 21.528 130.288 21.272C130.917 21.016 131.509 20.728 132.064 20.408C132.619 20.088 133.083 19.752 133.456 19.4ZM131.664 21.32L132.656 20.696C133.285 21.1333 133.792 21.624 134.176 22.168C134.56 22.7013 134.843 23.256 135.024 23.832C135.205 24.3973 135.301 24.9413 135.312 25.464C135.323 25.9867 135.253 26.456 135.104 26.872C134.955 27.2773 134.747 27.5867 134.48 27.8C134.235 28.0027 133.989 28.1413 133.744 28.216C133.499 28.3013 133.205 28.3493 132.864 28.36C132.704 28.36 132.517 28.3547 132.304 28.344C132.101 28.344 131.888 28.3387 131.664 28.328C131.664 28.1467 131.632 27.9333 131.568 27.688C131.515 27.4427 131.429 27.224 131.312 27.032C131.557 27.0533 131.792 27.0693 132.016 27.08C132.24 27.0907 132.427 27.096 132.576 27.096C132.768 27.096 132.933 27.08 133.072 27.048C133.221 27.016 133.355 26.936 133.472 26.808C133.685 26.6373 133.829 26.3493 133.904 25.944C133.979 25.5387 133.963 25.064 133.856 24.52C133.749 23.976 133.52 23.4267 133.168 22.872C132.816 22.3067 132.315 21.7893 131.664 21.32ZM133.184 21.8L134.048 22.376C133.685 22.7173 133.232 23.064 132.688 23.416C132.144 23.768 131.573 24.0987 130.976 24.408C130.379 24.7173 129.813 24.9733 129.28 25.176C129.205 25.0267 129.099 24.856 128.96 24.664C128.821 24.472 128.688 24.312 128.56 24.184C129.083 24.0347 129.637 23.832 130.224 23.576C130.811 23.3093 131.365 23.0213 131.888 22.712C132.421 22.4027 132.853 22.0987 133.184 21.8ZM134 23.48L134.976 24.152C134.528 24.6213 133.973 25.0907 133.312 25.56C132.651 26.0293 131.947 26.4667 131.2 26.872C130.464 27.2773 129.76 27.6133 129.088 27.88C128.992 27.7093 128.869 27.5173 128.72 27.304C128.571 27.0907 128.421 26.9147 128.272 26.776C128.773 26.616 129.296 26.4187 129.84 26.184C130.384 25.9387 130.912 25.6667 131.424 25.368C131.947 25.0693 132.427 24.76 132.864 24.44C133.312 24.1093 133.691 23.7893 134 23.48ZM138.32 20.776L139.36 21.672C138.955 22.024 138.507 22.3813 138.016 22.744C137.536 23.096 137.093 23.3947 136.688 23.64L135.824 22.824C136.091 22.6533 136.373 22.4507 136.672 22.216C136.971 21.9707 137.264 21.7253 137.552 21.48C137.851 21.224 138.107 20.9893 138.32 20.776ZM135.568 19.64C135.781 20.632 136.064 21.576 136.416 22.472C136.779 23.3573 137.221 24.1467 137.744 24.84C138.277 25.5333 138.891 26.0827 139.584 26.488C139.477 26.5733 139.36 26.6907 139.232 26.84C139.115 26.9787 138.997 27.1227 138.88 27.272C138.763 27.4213 138.667 27.56 138.592 27.688C137.856 27.1867 137.211 26.5467 136.656 25.768C136.101 24.9893 135.637 24.0987 135.264 23.096C134.891 22.0827 134.581 21.0053 134.336 19.864L135.568 19.64ZM134.992 14.504H135.312L135.584 14.408L136.496 15.064C136.229 15.5227 135.915 15.992 135.552 16.472C135.189 16.9413 134.837 17.3467 134.496 17.688C134.4 17.5493 134.267 17.3947 134.096 17.224C133.925 17.0427 133.776 16.8987 133.648 16.792C133.904 16.5147 134.16 16.184 134.416 15.8C134.672 15.4053 134.864 15.0533 134.992 14.744V14.504ZM127.568 13.56L128.96 13.96C128.661 14.888 128.304 15.816 127.888 16.744C127.483 17.6613 127.035 18.5307 126.544 19.352C126.053 20.1733 125.536 20.8987 124.992 21.528C124.96 21.4107 124.896 21.2507 124.8 21.048C124.715 20.8453 124.619 20.6427 124.512 20.44C124.416 20.2373 124.325 20.072 124.24 19.944C124.699 19.4213 125.131 18.8187 125.536 18.136C125.952 17.4533 126.331 16.7227 126.672 15.944C127.024 15.1547 127.323 14.36 127.568 13.56ZM126.288 17.688L127.68 16.28L127.728 16.312V28.344H126.288V17.688ZM147.552 14.264C147.488 14.5733 147.397 14.952 147.28 15.4C147.173 15.8373 147.013 16.3333 146.8 16.888C146.619 17.336 146.395 17.7947 146.128 18.264C145.872 18.7333 145.605 19.16 145.328 19.544C145.509 19.4373 145.717 19.352 145.952 19.288C146.197 19.2133 146.443 19.16 146.688 19.128C146.944 19.0853 147.173 19.064 147.376 19.064C148.016 19.064 148.555 19.2507 148.992 19.624C149.429 19.9867 149.648 20.5147 149.648 21.208C149.648 21.4213 149.648 21.6827 149.648 21.992C149.648 22.3013 149.653 22.6267 149.664 22.968C149.675 23.3093 149.68 23.6453 149.68 23.976C149.691 24.3067 149.696 24.5947 149.696 24.84H148.176C148.187 24.6373 148.197 24.4027 148.208 24.136C148.219 23.8587 148.224 23.5707 148.224 23.272C148.235 22.9733 148.24 22.6853 148.24 22.408C148.24 22.1307 148.24 21.8853 148.24 21.672C148.229 21.192 148.085 20.8453 147.808 20.632C147.531 20.4187 147.205 20.312 146.832 20.312C146.352 20.312 145.872 20.424 145.392 20.648C144.923 20.872 144.517 21.144 144.176 21.464C143.952 21.688 143.717 21.944 143.472 22.232C143.237 22.52 142.987 22.8347 142.72 23.176L141.344 22.152C142.08 21.4587 142.704 20.7973 143.216 20.168C143.728 19.5387 144.149 18.9413 144.48 18.376C144.821 17.8 145.088 17.256 145.28 16.744C145.451 16.3067 145.589 15.864 145.696 15.416C145.803 14.9573 145.867 14.5307 145.888 14.136L147.552 14.264ZM141.824 15.88C142.251 15.944 142.72 15.992 143.232 16.024C143.744 16.0453 144.192 16.056 144.576 16.056C145.291 16.056 146.064 16.04 146.896 16.008C147.728 15.976 148.565 15.9227 149.408 15.848C150.261 15.7733 151.067 15.6667 151.824 15.528V17.016C151.259 17.0907 150.656 17.16 150.016 17.224C149.376 17.288 148.725 17.3413 148.064 17.384C147.403 17.416 146.768 17.4427 146.16 17.464C145.552 17.4747 144.997 17.48 144.496 17.48C144.272 17.48 144.005 17.48 143.696 17.48C143.397 17.4693 143.083 17.4533 142.752 17.432C142.432 17.4107 142.123 17.3947 141.824 17.384V15.88ZM154.256 20.04C154.107 20.0933 153.931 20.152 153.728 20.216C153.536 20.28 153.344 20.3493 153.152 20.424C152.96 20.4987 152.784 20.568 152.624 20.632C152.08 20.8453 151.445 21.1013 150.72 21.4C150.005 21.6987 149.269 22.0453 148.512 22.44C148 22.7067 147.557 22.9733 147.184 23.24C146.811 23.5067 146.517 23.784 146.304 24.072C146.101 24.36 146 24.6747 146 25.016C146 25.2933 146.064 25.5173 146.192 25.688C146.32 25.8587 146.496 25.992 146.72 26.088C146.955 26.1733 147.232 26.2373 147.552 26.28C147.883 26.312 148.251 26.328 148.656 26.328C149.296 26.328 150.021 26.2907 150.832 26.216C151.643 26.1413 152.4 26.04 153.104 25.912L153.056 27.528C152.672 27.5707 152.224 27.6133 151.712 27.656C151.2 27.7093 150.672 27.7467 150.128 27.768C149.595 27.8 149.088 27.816 148.608 27.816C147.808 27.816 147.088 27.7413 146.448 27.592C145.808 27.4427 145.301 27.1867 144.928 26.824C144.555 26.4507 144.368 25.9333 144.368 25.272C144.368 24.7493 144.485 24.28 144.72 23.864C144.965 23.4373 145.28 23.0533 145.664 22.712C146.059 22.3707 146.496 22.056 146.976 21.768C147.456 21.48 147.931 21.2187 148.4 20.984C148.901 20.7173 149.365 20.488 149.792 20.296C150.229 20.0933 150.635 19.912 151.008 19.752C151.392 19.592 151.749 19.432 152.08 19.272C152.357 19.1547 152.619 19.0427 152.864 18.936C153.109 18.8187 153.355 18.696 153.6 18.568L154.256 20.04ZM168.336 13.992C168.475 14.184 168.624 14.4133 168.784 14.68C168.944 14.936 169.099 15.1973 169.248 15.464C169.397 15.7307 169.525 15.9707 169.632 16.184L168.576 16.648C168.416 16.3173 168.219 15.944 167.984 15.528C167.749 15.1013 167.525 14.7333 167.312 14.424L168.336 13.992ZM170.144 13.32C170.293 13.512 170.448 13.7467 170.608 14.024C170.779 14.2907 170.939 14.5573 171.088 14.824C171.248 15.08 171.376 15.304 171.472 15.496L170.432 15.944C170.261 15.6027 170.053 15.2293 169.808 14.824C169.573 14.408 169.344 14.0507 169.12 13.752L170.144 13.32ZM162.288 19.976C162.789 20.264 163.328 20.5947 163.904 20.968C164.48 21.3413 165.056 21.7253 165.632 22.12C166.208 22.5147 166.752 22.904 167.264 23.288C167.787 23.6613 168.235 24.0027 168.608 24.312L167.424 25.736C167.061 25.4053 166.624 25.0373 166.112 24.632C165.6 24.216 165.056 23.8 164.48 23.384C163.904 22.9573 163.328 22.5467 162.752 22.152C162.187 21.7573 161.664 21.4107 161.184 21.112L162.288 19.976ZM169.696 17.144C169.611 17.272 169.531 17.4267 169.456 17.608C169.381 17.7893 169.312 17.96 169.248 18.12C169.099 18.6427 168.885 19.2133 168.608 19.832C168.331 20.4507 168.005 21.0747 167.632 21.704C167.259 22.3333 166.832 22.9413 166.352 23.528C165.616 24.4453 164.715 25.32 163.648 26.152C162.581 26.9733 161.285 27.6667 159.76 28.232L158.32 26.968C159.365 26.648 160.293 26.2587 161.104 25.8C161.925 25.3413 162.651 24.84 163.28 24.296C163.909 23.752 164.459 23.2027 164.928 22.648C165.312 22.1893 165.675 21.6827 166.016 21.128C166.357 20.5733 166.651 20.0187 166.896 19.464C167.141 18.9093 167.317 18.4027 167.424 17.944H161.728L162.336 16.504H167.2C167.424 16.504 167.643 16.4933 167.856 16.472C168.069 16.44 168.245 16.3973 168.384 16.344L169.696 17.144ZM164.352 14.76C164.192 15.0053 164.032 15.2667 163.872 15.544C163.723 15.8107 163.605 16.024 163.52 16.184C163.179 16.792 162.741 17.4533 162.208 18.168C161.685 18.872 161.083 19.5707 160.4 20.264C159.717 20.9467 158.971 21.5707 158.16 22.136L156.8 21.096C157.728 20.52 158.523 19.9013 159.184 19.24C159.856 18.568 160.416 17.9173 160.864 17.288C161.312 16.6587 161.659 16.104 161.904 15.624C162.011 15.464 162.123 15.2453 162.24 14.968C162.368 14.68 162.464 14.424 162.528 14.2L164.352 14.76ZM180.864 14.072C180.832 14.36 180.805 14.6053 180.784 14.808C180.773 15 180.768 15.1973 180.768 15.4C180.768 15.528 180.768 15.7307 180.768 16.008C180.768 16.2853 180.768 16.5733 180.768 16.872C180.768 17.16 180.768 17.4053 180.768 17.608H179.04C179.04 17.384 179.04 17.1227 179.04 16.824C179.04 16.5253 179.04 16.248 179.04 15.992C179.04 15.7253 179.04 15.528 179.04 15.4C179.04 15.1973 179.035 15 179.024 14.808C179.013 14.6053 178.981 14.36 178.928 14.072H180.864ZM186.304 17.304C186.251 17.4427 186.197 17.624 186.144 17.848C186.091 18.0613 186.053 18.2427 186.032 18.392C185.979 18.744 185.904 19.1173 185.808 19.512C185.723 19.896 185.616 20.2907 185.488 20.696C185.36 21.1013 185.211 21.5067 185.04 21.912C184.88 22.3173 184.699 22.7067 184.496 23.08C184.08 23.816 183.557 24.488 182.928 25.096C182.299 25.704 181.573 26.232 180.752 26.68C179.931 27.1173 179.04 27.4693 178.08 27.736L176.768 26.216C177.077 26.1627 177.403 26.088 177.744 25.992C178.085 25.896 178.4 25.7947 178.688 25.688C179.179 25.5173 179.675 25.288 180.176 25C180.677 24.712 181.147 24.3707 181.584 23.976C182.021 23.5813 182.4 23.1493 182.72 22.68C182.997 22.2533 183.232 21.7893 183.424 21.288C183.627 20.776 183.792 20.2587 183.92 19.736C184.048 19.2133 184.139 18.7227 184.192 18.264H175.68C175.68 18.424 175.68 18.6267 175.68 18.872C175.68 19.1067 175.68 19.3573 175.68 19.624C175.68 19.8907 175.68 20.1413 175.68 20.376C175.68 20.6 175.68 20.7707 175.68 20.888C175.68 21.048 175.685 21.2293 175.696 21.432C175.707 21.6347 175.723 21.8053 175.744 21.944H174C174.021 21.7733 174.037 21.5813 174.048 21.368C174.059 21.1547 174.064 20.9627 174.064 20.792C174.064 20.664 174.064 20.4773 174.064 20.232C174.064 19.976 174.064 19.704 174.064 19.416C174.064 19.1173 174.064 18.8453 174.064 18.6C174.064 18.344 174.064 18.1413 174.064 17.992C174.064 17.8213 174.059 17.608 174.048 17.352C174.037 17.096 174.021 16.8773 174 16.696C174.245 16.7173 174.491 16.7387 174.736 16.76C174.992 16.7707 175.264 16.776 175.552 16.776H184C184.32 16.776 184.571 16.76 184.752 16.728C184.933 16.696 185.083 16.6587 185.2 16.616L186.304 17.304ZM191.728 15.08C192.016 15.272 192.347 15.512 192.72 15.8C193.093 16.0773 193.472 16.376 193.856 16.696C194.251 17.016 194.624 17.3253 194.976 17.624C195.328 17.9227 195.611 18.1893 195.824 18.424L194.56 19.72C194.357 19.5067 194.091 19.2507 193.76 18.952C193.429 18.6427 193.072 18.328 192.688 18.008C192.315 17.6773 191.941 17.368 191.568 17.08C191.195 16.7813 190.859 16.5307 190.56 16.328L191.728 15.08ZM190.08 25.784C190.976 25.6453 191.803 25.464 192.56 25.24C193.317 25.0053 194.011 24.744 194.64 24.456C195.28 24.1573 195.856 23.8533 196.368 23.544C197.221 23.0213 198.005 22.4187 198.72 21.736C199.445 21.0533 200.08 20.3493 200.624 19.624C201.168 18.8987 201.6 18.1947 201.92 17.512L202.896 19.256C202.512 19.9493 202.037 20.6427 201.472 21.336C200.917 22.0293 200.288 22.696 199.584 23.336C198.88 23.9653 198.112 24.536 197.28 25.048C196.747 25.3787 196.16 25.6987 195.52 26.008C194.891 26.3173 194.208 26.5947 193.472 26.84C192.747 27.0853 191.973 27.2827 191.152 27.432L190.08 25.784ZM206.192 15.864C206.523 15.8747 206.811 15.8853 207.056 15.896C207.312 15.896 207.541 15.896 207.744 15.896C207.883 15.896 208.128 15.896 208.48 15.896C208.832 15.896 209.248 15.896 209.728 15.896C210.208 15.896 210.72 15.896 211.264 15.896C211.819 15.896 212.373 15.896 212.928 15.896C213.483 15.896 213.995 15.896 214.464 15.896C214.944 15.896 215.355 15.896 215.696 15.896C216.048 15.896 216.293 15.896 216.432 15.896C216.613 15.896 216.837 15.896 217.104 15.896C217.381 15.896 217.648 15.8907 217.904 15.88C217.893 16.0933 217.883 16.3227 217.872 16.568C217.872 16.8027 217.872 17.032 217.872 17.256C217.872 17.3733 217.872 17.592 217.872 17.912C217.872 18.2213 217.872 18.6 217.872 19.048C217.872 19.4853 217.872 19.96 217.872 20.472C217.872 20.9733 217.872 21.4747 217.872 21.976C217.872 22.4773 217.872 22.9467 217.872 23.384C217.872 23.8213 217.872 24.1947 217.872 24.504C217.872 24.8027 217.872 25.0053 217.872 25.112C217.872 25.2507 217.872 25.432 217.872 25.656C217.883 25.8693 217.888 26.088 217.888 26.312C217.888 26.536 217.888 26.728 217.888 26.888C217.899 27.048 217.904 27.144 217.904 27.176H216.16C216.171 27.1333 216.176 27.0053 216.176 26.792C216.176 26.5787 216.176 26.328 216.176 26.04C216.187 25.752 216.192 25.4853 216.192 25.24C216.192 25.1333 216.192 24.9147 216.192 24.584C216.192 24.2533 216.192 23.8533 216.192 23.384C216.192 22.9147 216.192 22.4133 216.192 21.88C216.192 21.3467 216.192 20.824 216.192 20.312C216.192 19.7893 216.192 19.32 216.192 18.904C216.192 18.4773 216.192 18.136 216.192 17.88C216.192 17.624 216.192 17.496 216.192 17.496H207.888C207.888 17.496 207.888 17.624 207.888 17.88C207.888 18.1253 207.888 18.4613 207.888 18.888C207.888 19.3147 207.888 19.784 207.888 20.296C207.888 20.808 207.888 21.3307 207.888 21.864C207.888 22.3973 207.888 22.8987 207.888 23.368C207.888 23.8373 207.888 24.2373 207.888 24.568C207.888 24.8987 207.888 25.1227 207.888 25.24C207.888 25.3893 207.888 25.5707 207.888 25.784C207.888 25.9867 207.888 26.1893 207.888 26.392C207.899 26.584 207.904 26.7547 207.904 26.904C207.915 27.0533 207.92 27.144 207.92 27.176H206.176C206.176 27.144 206.176 27.048 206.176 26.888C206.187 26.728 206.192 26.5413 206.192 26.328C206.203 26.1147 206.208 25.9013 206.208 25.688C206.219 25.464 206.224 25.272 206.224 25.112C206.224 24.9947 206.224 24.7813 206.224 24.472C206.224 24.1627 206.224 23.7893 206.224 23.352C206.224 22.904 206.224 22.4293 206.224 21.928C206.224 21.416 206.224 20.9093 206.224 20.408C206.224 19.9067 206.224 19.4373 206.224 19C206.224 18.5627 206.224 18.1893 206.224 17.88C206.224 17.5707 206.224 17.3627 206.224 17.256C206.224 17.0533 206.224 16.824 206.224 16.568C206.224 16.312 206.213 16.0773 206.192 15.864ZM216.832 24.68V26.28H207.072V24.68H216.832ZM221.552 19.864C221.733 19.8747 221.952 19.8907 222.208 19.912C222.475 19.9227 222.757 19.9333 223.056 19.944C223.365 19.9547 223.659 19.96 223.936 19.96C224.149 19.96 224.443 19.96 224.816 19.96C225.189 19.96 225.611 19.96 226.08 19.96C226.56 19.96 227.061 19.96 227.584 19.96C228.107 19.96 228.624 19.96 229.136 19.96C229.659 19.96 230.149 19.96 230.608 19.96C231.067 19.96 231.472 19.96 231.824 19.96C232.176 19.96 232.448 19.96 232.64 19.96C233.024 19.96 233.371 19.9493 233.68 19.928C233.989 19.896 234.24 19.8747 234.432 19.864V21.848C234.251 21.8373 233.995 21.8213 233.664 21.8C233.333 21.7787 232.992 21.768 232.64 21.768C232.459 21.768 232.187 21.768 231.824 21.768C231.472 21.768 231.067 21.768 230.608 21.768C230.149 21.768 229.659 21.768 229.136 21.768C228.624 21.768 228.107 21.768 227.584 21.768C227.061 21.768 226.56 21.768 226.08 21.768C225.611 21.768 225.189 21.768 224.816 21.768C224.443 21.768 224.149 21.768 223.936 21.768C223.499 21.768 223.061 21.7787 222.624 21.8C222.187 21.8107 221.829 21.8267 221.552 21.848V19.864ZM246.672 15.32C246.821 15.5227 246.987 15.768 247.168 16.056C247.349 16.3333 247.525 16.6213 247.696 16.92C247.867 17.208 248.011 17.48 248.128 17.736L247.008 18.232C246.869 17.9227 246.725 17.6347 246.576 17.368C246.427 17.0907 246.272 16.8187 246.112 16.552C245.952 16.2853 245.781 16.0293 245.6 15.784L246.672 15.32ZM248.688 14.488C248.837 14.68 249.003 14.9147 249.184 15.192C249.365 15.4693 249.547 15.7573 249.728 16.056C249.909 16.344 250.064 16.6053 250.192 16.84L249.088 17.384C248.939 17.0747 248.784 16.7867 248.624 16.52C248.475 16.2533 248.315 15.992 248.144 15.736C247.973 15.48 247.797 15.2293 247.616 14.984L248.688 14.488ZM240.736 25.752C240.736 25.5813 240.736 25.2667 240.736 24.808C240.736 24.3493 240.736 23.8107 240.736 23.192C240.736 22.5733 240.736 21.9227 240.736 21.24C240.736 20.5573 240.736 19.9013 240.736 19.272C240.736 18.632 240.736 18.0667 240.736 17.576C240.736 17.0853 240.736 16.728 240.736 16.504C240.736 16.248 240.72 15.9547 240.688 15.624C240.667 15.2827 240.635 14.9787 240.592 14.712H242.56C242.539 14.968 242.512 15.2613 242.48 15.592C242.448 15.912 242.432 16.216 242.432 16.504C242.432 16.856 242.432 17.3093 242.432 17.864C242.432 18.4187 242.432 19.016 242.432 19.656C242.432 20.296 242.432 20.9413 242.432 21.592C242.443 22.232 242.448 22.84 242.448 23.416C242.448 23.992 242.448 24.488 242.448 24.904C242.448 25.32 242.448 25.6027 242.448 25.752C242.448 25.912 242.448 26.1147 242.448 26.36C242.459 26.6053 242.475 26.856 242.496 27.112C242.528 27.368 242.549 27.5973 242.56 27.8H240.608C240.64 27.512 240.667 27.176 240.688 26.792C240.72 26.408 240.736 26.0613 240.736 25.752ZM242.08 18.888C242.603 19.0373 243.184 19.224 243.824 19.448C244.475 19.6613 245.131 19.8907 245.792 20.136C246.464 20.3813 247.093 20.632 247.68 20.888C248.277 21.1333 248.784 21.3573 249.2 21.56L248.496 23.288C248.048 23.0533 247.541 22.8133 246.976 22.568C246.421 22.312 245.851 22.0667 245.264 21.832C244.677 21.5973 244.107 21.384 243.552 21.192C243.008 21 242.517 20.8347 242.08 20.696V18.888Z" fill="white"/>
</svg>
