<svg width="76" height="46" viewBox="0 0 76 46" fill="none" xmlns="http://www.w3.org/2000/svg">
<path d="M49.9912 34.6151C49.9206 34.6157 49.8508 34.6004 49.7869 34.5704C49.7229 34.5404 49.6666 34.4964 49.6219 34.4417C49.5811 34.3934 49.5503 34.3374 49.5313 34.2771C49.5122 34.2168 49.5054 34.1532 49.511 34.0902C49.5167 34.0272 49.5348 33.966 49.5643 33.91C49.5938 33.854 49.6341 33.8045 49.6829 33.7642C50.7831 32.8132 51.4663 31.4685 51.5855 30.0192C51.7048 28.5699 51.2506 27.1316 50.3206 26.0136C49.3906 24.8956 48.0591 24.1871 46.6123 24.0405C45.1654 23.8939 43.7188 24.3208 42.5834 25.2294C42.5347 25.2699 42.4786 25.3004 42.4181 25.3192C42.3576 25.3379 42.294 25.3446 42.2309 25.3388C42.1678 25.333 42.1066 25.3148 42.0505 25.2853C41.9945 25.2558 41.9448 25.2155 41.9043 25.1668C41.8638 25.1181 41.8334 25.0619 41.8146 25.0014C41.7958 24.9409 41.7892 24.8774 41.795 24.8143C41.8008 24.7512 41.819 24.6899 41.8485 24.6339C41.878 24.5779 41.9183 24.5282 41.967 24.4877C42.6222 23.9226 43.3835 23.4936 44.2063 23.2259C45.0291 22.9582 45.8971 22.8571 46.7594 22.9285C47.6218 22.9998 48.4613 23.2423 49.2289 23.6416C49.9965 24.041 50.6769 24.5893 51.2303 25.2544C51.7837 25.9196 52.1991 26.6884 52.4522 27.5158C52.7053 28.3433 52.791 29.2129 52.7043 30.0738C52.6177 30.9347 52.3604 31.7698 51.9475 32.5302C51.5346 33.2906 50.9743 33.9612 50.2994 34.5027C50.2136 34.5761 50.1041 34.616 49.9912 34.6151Z" fill="#E13A4B"/>
<path d="M61.5425 31.0833C61.4148 31.0833 61.2922 31.0325 61.2019 30.9422C61.1116 30.8519 61.0609 30.7294 61.0609 30.6016C61.0619 29.5037 60.737 28.4302 60.1274 27.5171C59.5177 26.6039 58.6507 25.8924 57.6363 25.4725C56.6218 25.0526 55.5055 24.9433 54.4289 25.1585C53.3522 25.3736 52.3637 25.9035 51.5885 26.681C51.4978 26.7713 51.375 26.8218 51.247 26.8215C51.119 26.8212 50.9964 26.7701 50.9061 26.6794C50.8159 26.5887 50.7653 26.4659 50.7656 26.3379C50.7659 26.2099 50.8171 26.0873 50.9078 25.9971C51.8185 25.0864 52.9788 24.4662 54.2419 24.215C55.5051 23.9637 56.8144 24.0927 58.0043 24.5855C59.1942 25.0784 60.2112 25.913 60.9267 26.9839C61.6422 28.0547 62.0241 29.3137 62.0241 30.6016C62.0241 30.7294 61.9734 30.8519 61.8831 30.9422C61.7928 31.0325 61.6702 31.0833 61.5425 31.0833Z" fill="#E13A4B"/>
<path d="M75.5 17.9663C75.4966 15.1375 74.3714 12.4255 72.3711 10.4252C70.3708 8.4249 67.6588 7.29963 64.8299 7.29623C64.117 7.29577 63.4058 7.36787 62.7075 7.51138C61.3628 4.94568 59.2564 2.8595 56.6778 1.53969C54.0992 0.219882 51.1751 -0.26876 48.3075 0.140947C45.4399 0.550654 42.7696 1.83859 40.6638 3.82768C38.558 5.81677 37.1201 8.40934 36.5477 11.2489C36.1078 11.2489 35.5041 11.2843 35.4174 11.2971C33.7602 11.4376 32.1503 11.9214 30.6903 12.7179C29.2302 13.5145 27.952 14.6062 26.9369 15.9236C25.9218 17.2411 25.192 18.7554 24.7941 20.3703C24.3961 21.9851 24.3386 23.6651 24.6253 25.3034C17.0603 25.9937 15.1144 31.8185 14.7195 33.4111C9.38284 33.5845 5.46223 35.1001 3.07005 37.9065C0.73246 40.6615 0.478793 44.4376 0.50127 44.7619C0.512452 44.882 0.567976 44.9936 0.657036 45.0749C0.746097 45.1563 0.8623 45.2015 0.982916 45.2018C1.10649 45.1969 1.22354 45.145 1.31009 45.0566C1.39664 44.9683 1.44613 44.8502 1.44849 44.7266C1.45456 44.5621 1.46957 44.3981 1.49345 44.2353C1.83381 42.9862 3.74112 41.4385 6.0177 40.5427C7.53971 39.9454 11.4475 38.7959 14.8672 40.9922C20.968 44.9096 31.1532 43.7536 36.4321 41.6794C40.3045 40.1574 46.8356 42.2252 49.504 43.2014C52.2179 44.7126 55.3163 45.3924 58.4136 45.1564C61.5109 44.9203 64.4704 43.7788 66.924 41.8737C69.3776 39.9687 71.2169 37.3843 72.213 34.4421C73.2092 31.4998 73.3182 28.3296 72.5266 25.3259C74.4339 23.3506 75.4998 20.7121 75.5 17.9663ZM57.2264 44.2481C54.6817 44.2482 52.1796 43.5947 49.9599 42.3505L49.8893 42.3183C47.4136 41.4096 43.3999 40.1798 39.8389 40.1798C38.5648 40.1505 37.2962 40.3585 36.0981 40.7931C31.012 42.7904 21.2281 43.9238 15.4066 40.1895C12.7383 38.478 9.19339 38.2822 5.687 39.6532C4.33921 40.1617 3.09706 40.915 2.02327 41.8752C3.56775 37.0363 7.96359 34.5125 15.1208 34.3647C15.2315 34.3624 15.338 34.3223 15.4227 34.251C15.5074 34.1798 15.5652 34.0817 15.5864 33.973C15.6346 33.6776 16.797 26.7515 25.1712 26.2506C26.7767 26.3437 28.1477 26.8928 29.1785 28.2607C29.5719 28.7821 29.858 29.3764 30.0201 30.0092C30.1821 30.6419 30.2169 31.3006 30.1225 31.9469C30.0505 32.4517 29.8797 32.9373 29.6199 33.3761C29.3602 33.8148 29.0165 34.1981 28.6086 34.504C28.2007 34.81 27.7365 35.0325 27.2426 35.159C26.7487 35.2856 26.2346 35.3135 25.7299 35.2414C24.9404 35.1277 24.2283 34.7054 23.7498 34.0674C23.2712 33.4293 23.0653 32.6274 23.1772 31.8377C23.2654 31.2312 23.5903 30.6843 24.0807 30.3166C24.5711 29.949 25.1872 29.7905 25.7941 29.8758C26.253 29.9434 26.6667 30.1895 26.9451 30.5605C27.2235 30.9315 27.3442 31.3975 27.2808 31.857C27.2566 32.027 27.199 32.1905 27.1114 32.3382C27.0237 32.4859 26.9078 32.6148 26.7702 32.7175C26.6342 32.8207 26.4789 32.8957 26.3135 32.9382C26.1481 32.9806 25.9759 32.9897 25.8069 32.9648C25.5596 32.9258 25.3371 32.7921 25.1866 32.5919C25.0362 32.3917 24.9696 32.1408 25.001 31.8923C25.0101 31.8299 25.0067 31.7663 24.9911 31.7051C24.9755 31.644 24.9479 31.5866 24.91 31.5361C24.8721 31.4857 24.8246 31.4433 24.7702 31.4113C24.7159 31.3793 24.6557 31.3583 24.5932 31.3497C24.5306 31.3406 24.4668 31.3439 24.4055 31.3595C24.3441 31.3751 24.2865 31.4026 24.2358 31.4404C24.1851 31.4783 24.1423 31.5258 24.11 31.5802C24.0777 31.6346 24.0564 31.6948 24.0473 31.7574C23.9802 32.2583 24.1125 32.7656 24.4159 33.1698C24.7192 33.574 25.1692 33.8429 25.6689 33.9184C25.9641 33.9607 26.2647 33.9443 26.5535 33.8703C26.8424 33.7963 27.1138 33.6662 27.3524 33.4873C27.5909 33.3083 27.7919 33.0842 27.9438 32.8276C28.0957 32.571 28.1956 32.287 28.2377 31.9919C28.3385 31.2788 28.1525 30.5548 27.7203 29.9787C27.2881 29.4027 26.645 29.0215 25.9322 28.9189C25.0728 28.7978 24.2004 29.0221 23.506 29.5426C22.8115 30.0631 22.3516 30.8376 22.2267 31.6964C22.0782 32.7396 22.3499 33.799 22.9821 34.6419C23.6143 35.4849 24.5553 36.0423 25.5983 36.1918C25.8292 36.2237 26.0619 36.2398 26.295 36.24C27.459 36.2371 28.583 35.8153 29.4615 35.0517C30.34 34.2882 30.9143 33.2339 31.0794 32.0817C31.1947 31.2743 31.1426 30.4517 30.9263 29.6652C30.71 28.8787 30.3342 28.1452 29.8221 27.5102C29.3101 26.8753 28.6728 26.3526 27.95 25.9746C27.2272 25.5966 26.4343 25.3714 25.6207 25.313C25.3248 23.7798 25.3588 22.2011 25.7205 20.682C26.0821 19.1629 26.7632 17.7383 27.7182 16.5029C28.6733 15.2674 29.8804 14.2496 31.2594 13.5169C32.6385 12.7843 34.1577 12.3538 35.716 12.254C36.6793 12.2122 41.3513 12.1801 43.2682 15.4425C43.3001 15.4969 43.3423 15.5445 43.3926 15.5825C43.4428 15.6206 43.5 15.6484 43.561 15.6644C43.622 15.6803 43.6855 15.6841 43.7479 15.6755C43.8104 15.6669 43.8705 15.6461 43.9249 15.6143C43.9793 15.5824 44.0269 15.5402 44.0649 15.49C44.103 15.4397 44.1308 15.3825 44.1468 15.3215C44.1627 15.2606 44.1665 15.197 44.1579 15.1346C44.1493 15.0721 44.1285 15.012 44.0967 14.9576C42.5426 12.3086 39.5531 11.5444 37.5302 11.3453C38.0773 8.71925 39.4205 6.32566 41.377 4.49055C43.3335 2.65544 45.808 1.468 48.4637 1.08997C51.1193 0.711948 53.8269 1.16171 56.2178 2.378C58.6086 3.59429 60.5664 5.51798 61.8245 7.88706C61.5542 7.98977 61.2894 8.10659 61.0314 8.23705C59.9998 8.74947 59.0829 9.46587 58.3361 10.3429C57.5894 11.2198 57.0283 12.2392 56.6869 13.3393C56.1242 15.143 56.301 17.0963 57.1783 18.7697C58.0557 20.4431 59.5617 21.6995 61.3653 22.2626C62.0916 22.4912 62.8558 22.574 63.6142 22.5063C64.3726 22.4387 65.1102 22.2218 65.7845 21.8682C66.4588 21.5147 67.0566 21.0314 67.5436 20.446C68.0306 19.8607 68.3971 19.185 68.6221 18.4576C68.9942 17.2598 68.8764 15.9633 68.2944 14.8523C67.7123 13.7412 66.7136 12.9062 65.5171 12.5301C64.5339 12.2245 63.4696 12.3212 62.5577 12.7992C61.6457 13.2771 60.9606 14.0972 60.6525 15.0796C60.402 15.8904 60.4826 16.7673 60.8767 17.5188C61.2708 18.2703 61.9463 18.8352 62.7557 19.0902C63.4284 19.2994 64.1567 19.2333 64.7809 18.9065C65.405 18.5797 65.8741 18.0187 66.0854 17.3466C66.1189 17.2262 66.1042 17.0976 66.0446 16.9879C65.985 16.8781 65.8851 16.7958 65.7659 16.7583C65.6468 16.7208 65.5177 16.731 65.406 16.7869C65.2943 16.8427 65.2086 16.9398 65.1671 17.0576C65.0319 17.4865 64.7324 17.8444 64.3341 18.0532C63.9358 18.262 63.4711 18.3046 63.0414 18.1718C62.476 17.9923 62.0044 17.5966 61.7295 17.0709C61.4547 16.5452 61.3987 15.9322 61.574 15.3654C61.6872 14.9988 61.8715 14.6581 62.1165 14.3628C62.3614 14.0676 62.6622 13.8235 63.0016 13.6445C63.341 13.4656 63.7123 13.3553 64.0944 13.32C64.4764 13.2847 64.8617 13.3251 65.2281 13.4388C66.1817 13.7374 66.9779 14.402 67.442 15.2869C67.9062 16.1719 68.0003 17.2047 67.7038 18.159C67.321 19.3817 66.4686 20.4026 65.3338 20.9974C64.1989 21.5923 62.8744 21.7124 61.6511 21.3314C60.0944 20.8437 58.7946 19.7585 58.0368 18.3139C57.279 16.8693 57.1249 15.1831 57.6085 13.6251C57.911 12.6486 58.4084 11.7436 59.0707 10.9648C59.733 10.1861 60.5464 9.54977 61.4616 9.09439C62.2742 8.68219 63.1519 8.41385 64.0561 8.30127C64.3162 8.282 64.5795 8.26595 64.8428 8.26595C66.7654 8.26695 68.6445 8.83869 70.2418 9.90872C71.8392 10.9787 73.0829 12.4989 73.8154 14.2765C74.5479 16.0541 74.7362 18.0092 74.3564 19.8939C73.9767 21.7787 73.0459 23.5083 71.6821 24.8635C71.6208 24.9237 71.5768 24.9993 71.5548 25.0823C71.5328 25.1654 71.5335 25.2528 71.557 25.3355C72.1814 27.5485 72.2843 29.8761 71.8575 32.1355C71.4307 34.3949 70.4859 36.5247 69.0972 38.3574C67.7085 40.1901 65.9139 41.6758 63.8541 42.6979C61.7944 43.72 59.5258 44.2507 57.2264 44.2481Z" fill="#E13A4B"/>
<path d="M42.3201 14.1006C42.2431 14.0997 42.1672 14.081 42.0986 14.046C41.9871 13.9871 41.9031 13.8869 41.8647 13.7669C41.8263 13.6468 41.8365 13.5164 41.8931 13.4038C44.1408 9.03687 49.5737 9.89419 49.6283 9.90383C49.7561 9.92469 49.8703 9.99545 49.9458 10.1005C50.0214 10.2056 50.0522 10.3364 50.0313 10.4641C50.0104 10.5919 49.9397 10.7061 49.8346 10.7817C49.7295 10.8573 49.5987 10.888 49.471 10.8671C49.2719 10.835 44.6802 10.1222 42.7472 13.8565C42.7045 13.9318 42.6423 13.9942 42.5671 14.0372C42.492 14.0801 42.4067 14.102 42.3201 14.1006Z" fill="#E13A4B"/>
</svg>
