<svg width="76" height="46" viewBox="0 0 76 46" fill="none" xmlns="http://www.w3.org/2000/svg">
<path d="M26.0088 34.6151C26.0794 34.6157 26.1492 34.6004 26.2131 34.5704C26.2771 34.5404 26.3334 34.4964 26.3781 34.4417C26.4189 34.3934 26.4497 34.3374 26.4687 34.2771C26.4878 34.2168 26.4946 34.1532 26.489 34.0902C26.4833 34.0272 26.4652 33.966 26.4357 33.91C26.4062 33.854 26.3659 33.8045 26.3171 33.7642C25.2169 32.8132 24.5337 31.4685 24.4145 30.0192C24.2952 28.5699 24.7494 27.1316 25.6794 26.0136C26.6094 24.8956 27.9409 24.1871 29.3877 24.0405C30.8346 23.8939 32.2812 24.3208 33.4166 25.2294C33.4653 25.2699 33.5214 25.3004 33.5819 25.3192C33.6424 25.3379 33.706 25.3446 33.7691 25.3388C33.8322 25.333 33.8934 25.3148 33.9495 25.2853C34.0055 25.2558 34.0552 25.2155 34.0957 25.1668C34.1362 25.1181 34.1666 25.0619 34.1854 25.0014C34.2042 24.9409 34.2108 24.8774 34.205 24.8143C34.1992 24.7512 34.181 24.6899 34.1515 24.6339C34.122 24.5779 34.0817 24.5282 34.033 24.4877C33.3778 23.9226 32.6165 23.4936 31.7937 23.2259C30.9709 22.9582 30.1029 22.8571 29.2406 22.9285C28.3782 22.9998 27.5387 23.2423 26.7711 23.6416C26.0035 24.041 25.3231 24.5893 24.7697 25.2544C24.2163 25.9196 23.8009 26.6884 23.5478 27.5158C23.2947 28.3433 23.209 29.2129 23.2957 30.0738C23.3823 30.9347 23.6396 31.7698 24.0525 32.5302C24.4654 33.2906 25.0257 33.9612 25.7006 34.5027C25.7864 34.5761 25.8959 34.616 26.0088 34.6151Z" fill="#E13A4B"/>
<path d="M14.4575 31.0833C14.5852 31.0833 14.7078 31.0325 14.7981 30.9422C14.8884 30.8519 14.9391 30.7294 14.9391 30.6016C14.9381 29.5037 15.263 28.4302 15.8726 27.5171C16.4823 26.6039 17.3493 25.8924 18.3637 25.4725C19.3782 25.0526 20.4945 24.9433 21.5711 25.1585C22.6478 25.3736 23.6363 25.9035 24.4115 26.681C24.5022 26.7713 24.625 26.8218 24.753 26.8215C24.881 26.8212 25.0036 26.7701 25.0939 26.6794C25.1841 26.5887 25.2347 26.4659 25.2344 26.3379C25.2341 26.2099 25.1829 26.0873 25.0922 25.9971C24.1815 25.0864 23.0212 24.4662 21.7581 24.215C20.4949 23.9637 19.1856 24.0927 17.9957 24.5855C16.8058 25.0784 15.7888 25.913 15.0733 26.9839C14.3578 28.0547 13.9759 29.3137 13.9759 30.6016C13.9759 30.7294 14.0266 30.8519 14.1169 30.9422C14.2072 31.0325 14.3298 31.0833 14.4575 31.0833Z" fill="#E13A4B"/>
<path d="M0.5 17.9663C0.503395 15.1375 1.62865 12.4255 3.62894 10.4252C5.62923 8.4249 8.34123 7.29963 11.1701 7.29623C11.883 7.29577 12.5942 7.36787 13.2925 7.51138C14.6372 4.94568 16.7436 2.8595 19.3222 1.53969C21.9008 0.219882 24.8249 -0.26876 27.6925 0.140947C30.5601 0.550654 33.2304 1.83859 35.3362 3.82768C37.442 5.81677 38.8799 8.40934 39.4523 11.2489C39.8922 11.2489 40.4959 11.2843 40.5826 11.2971C42.2398 11.4376 43.8497 11.9214 45.3097 12.7179C46.7698 13.5145 48.048 14.6062 49.0631 15.9236C50.0782 17.2411 50.808 18.7554 51.2059 20.3703C51.6039 21.9851 51.6614 23.6651 51.3747 25.3034C58.9397 25.9937 60.8856 31.8185 61.2805 33.4111C66.6172 33.5845 70.5378 35.1001 72.93 37.9065C75.2675 40.6615 75.5212 44.4376 75.4987 44.7619C75.4875 44.882 75.432 44.9936 75.343 45.0749C75.2539 45.1563 75.1377 45.2015 75.0171 45.2018C74.8935 45.1969 74.7765 45.145 74.6899 45.0566C74.6034 44.9683 74.5539 44.8502 74.5515 44.7266C74.5454 44.5621 74.5304 44.3981 74.5065 44.2353C74.1662 42.9862 72.2589 41.4385 69.9823 40.5427C68.4603 39.9454 64.5525 38.7959 61.1328 40.9922C55.032 44.9096 44.8468 43.7536 39.5679 41.6794C35.6955 40.1574 29.1644 42.2252 26.496 43.2014C23.7821 44.7126 20.6837 45.3924 17.5864 45.1564C14.4891 44.9203 11.5296 43.7788 9.07599 41.8737C6.62242 39.9687 4.78313 37.3843 3.78698 34.4421C2.79082 31.4998 2.68176 28.3296 3.47337 25.3259C1.56615 23.3506 0.500153 20.7121 0.5 17.9663ZM18.7736 44.2481C21.3183 44.2482 23.8204 43.5947 26.0401 42.3505L26.1107 42.3183C28.5864 41.4096 32.6001 40.1798 36.1611 40.1798C37.4352 40.1505 38.7038 40.3585 39.9019 40.7931C44.988 42.7904 54.7719 43.9238 60.5934 40.1895C63.2617 38.478 66.8066 38.2822 70.313 39.6532C71.6608 40.1617 72.9029 40.915 73.9767 41.8752C72.4323 37.0363 68.0364 34.5125 60.8792 34.3647C60.7685 34.3624 60.662 34.3223 60.5773 34.251C60.4926 34.1798 60.4348 34.0817 60.4136 33.973C60.3654 33.6776 59.203 26.7515 50.8288 26.2506C49.2233 26.3437 47.8523 26.8928 46.8215 28.2607C46.4281 28.7821 46.142 29.3764 45.9799 30.0092C45.8179 30.6419 45.7831 31.3006 45.8775 31.9469C45.9495 32.4517 46.1203 32.9373 46.3801 33.3761C46.6398 33.8148 46.9835 34.1981 47.3914 34.504C47.7993 34.81 48.2635 35.0325 48.7574 35.159C49.2513 35.2856 49.7654 35.3135 50.2701 35.2414C51.0596 35.1277 51.7717 34.7054 52.2502 34.0674C52.7288 33.4293 52.9347 32.6274 52.8228 31.8377C52.7346 31.2312 52.4097 30.6843 51.9193 30.3166C51.4289 29.949 50.8128 29.7905 50.2059 29.8758C49.747 29.9434 49.3333 30.1895 49.0549 30.5605C48.7765 30.9315 48.6558 31.3975 48.7192 31.857C48.7434 32.027 48.801 32.1905 48.8886 32.3382C48.9763 32.4859 49.0922 32.6148 49.2298 32.7175C49.3658 32.8207 49.5211 32.8957 49.6865 32.9382C49.8519 32.9806 50.0241 32.9897 50.1931 32.9648C50.4404 32.9258 50.6629 32.7921 50.8134 32.5919C50.9638 32.3917 51.0304 32.1408 50.999 31.8923C50.9899 31.8299 50.9933 31.7663 51.0089 31.7051C51.0245 31.644 51.0521 31.5866 51.09 31.5361C51.1279 31.4857 51.1754 31.4433 51.2298 31.4113C51.2841 31.3793 51.3443 31.3583 51.4068 31.3497C51.4694 31.3406 51.5332 31.3439 51.5945 31.3595C51.6559 31.3751 51.7135 31.4026 51.7642 31.4404C51.8149 31.4783 51.8577 31.5258 51.89 31.5802C51.9223 31.6346 51.9436 31.6948 51.9527 31.7574C52.0198 32.2583 51.8875 32.7656 51.5841 33.1698C51.2808 33.574 50.8308 33.8429 50.3311 33.9184C50.0359 33.9607 49.7353 33.9443 49.4465 33.8703C49.1576 33.7963 48.8862 33.6662 48.6476 33.4873C48.4091 33.3083 48.2081 33.0842 48.0562 32.8276C47.9043 32.571 47.8044 32.287 47.7623 31.9919C47.6615 31.2788 47.8475 30.5548 48.2797 29.9787C48.7119 29.4027 49.355 29.0215 50.0678 28.9189C50.9272 28.7978 51.7996 29.0221 52.494 29.5426C53.1885 30.0631 53.6484 30.8376 53.7733 31.6964C53.9218 32.7396 53.6501 33.799 53.0179 34.6419C52.3857 35.4849 51.4447 36.0423 50.4017 36.1918C50.1708 36.2237 49.9381 36.2398 49.705 36.24C48.541 36.2371 47.417 35.8153 46.5385 35.0517C45.66 34.2882 45.0857 33.2339 44.9206 32.0817C44.8053 31.2743 44.8574 30.4517 45.0737 29.6652C45.29 28.8787 45.6658 28.1452 46.1779 27.5102C46.6899 26.8753 47.3272 26.3526 48.05 25.9746C48.7728 25.5966 49.5657 25.3714 50.3793 25.313C50.6752 23.7798 50.6412 22.2011 50.2795 20.682C49.9179 19.1629 49.2368 17.7383 48.2818 16.5029C47.3267 15.2674 46.1196 14.2496 44.7406 13.5169C43.3615 12.7843 41.8423 12.3538 40.284 12.254C39.3207 12.2122 34.6487 12.1801 32.7318 15.4425C32.6999 15.4969 32.6577 15.5445 32.6074 15.5825C32.5572 15.6206 32.5 15.6484 32.439 15.6644C32.378 15.6803 32.3145 15.6841 32.2521 15.6755C32.1896 15.6669 32.1295 15.6461 32.0751 15.6143C32.0207 15.5824 31.9731 15.5402 31.9351 15.49C31.897 15.4397 31.8692 15.3825 31.8532 15.3215C31.8373 15.2606 31.8335 15.197 31.8421 15.1346C31.8507 15.0721 31.8715 15.012 31.9033 14.9576C33.4574 12.3086 36.4469 11.5444 38.4698 11.3453C37.9227 8.71925 36.5795 6.32566 34.623 4.49055C32.6665 2.65544 30.192 1.468 27.5363 1.08997C24.8807 0.711948 22.1731 1.16171 19.7822 2.378C17.3914 3.59429 15.4336 5.51798 14.1755 7.88706C14.4458 7.98977 14.7106 8.10659 14.9686 8.23705C16.0002 8.74947 16.9171 9.46587 17.6639 10.3429C18.4106 11.2198 18.9717 12.2392 19.3131 13.3393C19.8758 15.143 19.699 17.0963 18.8217 18.7697C17.9443 20.4431 16.4383 21.6995 14.6347 22.2626C13.9084 22.4912 13.1442 22.574 12.3858 22.5063C11.6274 22.4387 10.8898 22.2218 10.2155 21.8682C9.54119 21.5147 8.94338 21.0314 8.45641 20.446C7.96944 19.8607 7.60291 19.185 7.37788 18.4576C7.00577 17.2598 7.12363 15.9633 7.70564 14.8523C8.28765 13.7412 9.28635 12.9062 10.4829 12.5301C11.4661 12.2245 12.5304 12.3212 13.4423 12.7992C14.3543 13.2771 15.0394 14.0972 15.3475 15.0796C15.598 15.8904 15.5174 16.7673 15.1233 17.5188C14.7292 18.2703 14.0537 18.8352 13.2443 19.0902C12.5716 19.2994 11.8433 19.2333 11.2191 18.9065C10.595 18.5797 10.1259 18.0187 9.91456 17.3466C9.88114 17.2262 9.89579 17.0976 9.95541 16.9879C10.015 16.8781 10.1149 16.7958 10.2341 16.7583C10.3532 16.7208 10.4823 16.731 10.594 16.7869C10.7057 16.8427 10.7914 16.9398 10.8329 17.0576C10.9681 17.4865 11.2676 17.8444 11.6659 18.0532C12.0642 18.262 12.5289 18.3046 12.9586 18.1718C13.524 17.9923 13.9956 17.5966 14.2705 17.0709C14.5453 16.5452 14.6013 15.9322 14.426 15.3654C14.3128 14.9988 14.1285 14.6581 13.8835 14.3628C13.6386 14.0676 13.3378 13.8235 12.9984 13.6445C12.659 13.4656 12.2877 13.3553 11.9056 13.32C11.5236 13.2847 11.1383 13.3251 10.7719 13.4388C9.81831 13.7374 9.02209 14.402 8.55797 15.2869C8.09385 16.1719 7.9997 17.2047 8.29622 18.159C8.67898 19.3817 9.53139 20.4026 10.6662 20.9974C11.8011 21.5923 13.1256 21.7124 14.3489 21.3314C15.9056 20.8437 17.2054 19.7585 17.9632 18.3139C18.721 16.8693 18.8751 15.1831 18.3915 13.6251C18.089 12.6486 17.5916 11.7436 16.9293 10.9648C16.267 10.1861 15.4536 9.54977 14.5384 9.09439C13.7258 8.68219 12.8481 8.41385 11.9439 8.30127C11.6838 8.282 11.4205 8.26595 11.1572 8.26595C9.23458 8.26695 7.35552 8.83869 5.75817 9.90872C4.16081 10.9787 2.91709 12.4989 2.18459 14.2765C1.45208 16.0541 1.26379 18.0092 1.64355 19.8939C2.02333 21.7787 2.95409 23.5083 4.31786 24.8635C4.37919 24.9237 4.42316 24.9993 4.44521 25.0823C4.46724 25.1654 4.46648 25.2528 4.44305 25.3355C3.81856 27.5485 3.71571 29.8761 4.14249 32.1355C4.56927 34.3949 5.51411 36.5247 6.90279 38.3574C8.29146 40.1901 10.0861 41.6758 12.1459 42.6979C14.2056 43.72 16.4742 44.2507 18.7736 44.2481Z" fill="#E13A4B"/>
<path d="M33.6799 14.1006C33.7569 14.0997 33.8328 14.081 33.9014 14.046C34.0129 13.9871 34.0969 13.8869 34.1353 13.7669C34.1737 13.6468 34.1635 13.5164 34.1069 13.4038C31.8592 9.03687 26.4263 9.89419 26.3717 9.90383C26.2439 9.92469 26.1297 9.99545 26.0542 10.1005C25.9786 10.2056 25.9478 10.3364 25.9687 10.4641C25.9896 10.5919 26.0603 10.7061 26.1654 10.7817C26.2705 10.8573 26.4013 10.888 26.529 10.8671C26.7281 10.835 31.3198 10.1222 33.2528 13.8565C33.2955 13.9318 33.3577 13.9942 33.4329 14.0372C33.508 14.0801 33.5933 14.102 33.6799 14.1006Z" fill="#E13A4B"/>
</svg>
