<svg width="97" height="124" viewBox="0 0 97 124" fill="none" xmlns="http://www.w3.org/2000/svg">
<path d="M35.69 5.15H47.422V6.452H35.69V5.15ZM41.836 9.91H46.792V11.198H41.836V9.91ZM35.172 15.3H47.856V16.602H35.172V15.3ZM41.192 5.654H42.592V15.93H41.192V5.654ZM37.006 8.846H38.378V15.986H37.006V8.846ZM50.46 7.754H54.436V8.762H50.46V7.754ZM50.46 10.092H54.436V11.058H50.46V10.092ZM50.46 12.486H54.436V13.494H50.46V12.486ZM56.48 10.82H61.772V11.954H56.48V10.82ZM51.174 5.458H53.442V6.48H51.174V5.458ZM55.5 4.898H60.862V5.99H55.5V4.898ZM55.416 13.466H62.038V14.628H55.416V13.466ZM58.216 9.462H59.476V17.12H58.216V9.462ZM52.098 8.258H53.022V12.892H52.098V8.258ZM60.484 4.898H61.66C61.66 4.898 61.66 4.954 61.66 5.066C61.66 5.178 61.6553 5.27133 61.646 5.346C61.618 6.11133 61.5807 6.73667 61.534 7.222C61.4967 7.70733 61.4453 8.08533 61.38 8.356C61.3147 8.61733 61.2307 8.80867 61.128 8.93C61.0253 9.05133 60.9087 9.14467 60.778 9.21C60.6567 9.266 60.5027 9.30333 60.316 9.322C60.176 9.34067 59.9707 9.35 59.7 9.35C59.4387 9.35 59.1633 9.34533 58.874 9.336C58.8647 9.168 58.832 8.98133 58.776 8.776C58.7293 8.57067 58.664 8.39333 58.58 8.244C58.832 8.272 59.0607 8.29067 59.266 8.3C59.4807 8.3 59.6347 8.3 59.728 8.3C59.8213 8.30933 59.9007 8.30467 59.966 8.286C60.0313 8.26733 60.0827 8.23 60.12 8.174C60.1853 8.09933 60.2367 7.95467 60.274 7.74C60.3207 7.52533 60.358 7.20333 60.386 6.774C60.4233 6.33533 60.456 5.766 60.484 5.066V4.898ZM56.382 9.574L57.488 9.784C57.3573 10.428 57.1753 11.0533 56.942 11.66C56.718 12.2667 56.4613 12.78 56.172 13.2C56.0973 13.144 55.9993 13.0833 55.878 13.018C55.7567 12.9433 55.6307 12.878 55.5 12.822C55.3787 12.7567 55.2713 12.7053 55.178 12.668C55.4673 12.276 55.71 11.8093 55.906 11.268C56.1113 10.7173 56.27 10.1527 56.382 9.574ZM51.02 4.17L52.21 4.436C52.042 5.06133 51.8367 5.67733 51.594 6.284C51.3513 6.89067 51.0807 7.46 50.782 7.992C50.4927 8.51467 50.18 8.972 49.844 9.364C49.7693 9.29867 49.6713 9.21467 49.55 9.112C49.438 9.00933 49.3167 8.91133 49.186 8.818C49.0647 8.71533 48.9573 8.636 48.864 8.58C49.3587 8.048 49.788 7.39467 50.152 6.62C50.5253 5.836 50.8147 5.01933 51.02 4.17ZM49.956 7.754H51.034V11.478C51.034 11.9073 51.02 12.374 50.992 12.878C50.964 13.382 50.908 13.8907 50.824 14.404C50.7493 14.9173 50.6327 15.4167 50.474 15.902C50.3153 16.378 50.11 16.812 49.858 17.204C49.802 17.1387 49.7133 17.0687 49.592 16.994C49.4707 16.9193 49.3493 16.8447 49.228 16.77C49.116 16.6953 49.0133 16.644 48.92 16.616C49.2373 16.1213 49.466 15.5753 49.606 14.978C49.7553 14.3807 49.8487 13.7787 49.886 13.172C49.9327 12.556 49.956 11.9867 49.956 11.464V7.754ZM54.072 7.754H55.178V15.818C55.178 16.1073 55.1407 16.3407 55.066 16.518C55.0007 16.7047 54.87 16.8493 54.674 16.952C54.478 17.0453 54.2307 17.1013 53.932 17.12C53.6333 17.148 53.2507 17.162 52.784 17.162C52.7653 17.0033 52.714 16.812 52.63 16.588C52.5553 16.3733 52.4807 16.1913 52.406 16.042C52.7233 16.0513 53.0173 16.056 53.288 16.056C53.5587 16.056 53.7407 16.056 53.834 16.056C53.918 16.0467 53.9787 16.028 54.016 16C54.0533 15.9627 54.072 15.8973 54.072 15.804V7.754ZM57.362 5.248H58.566C58.4913 5.91067 58.3653 6.52667 58.188 7.096C58.0107 7.656 57.7353 8.16 57.362 8.608C56.9887 9.056 56.466 9.42933 55.794 9.728C55.7193 9.588 55.612 9.42933 55.472 9.252C55.3413 9.06533 55.2107 8.92067 55.08 8.818C55.6493 8.57533 56.088 8.27667 56.396 7.922C56.704 7.56733 56.928 7.166 57.068 6.718C57.208 6.26067 57.306 5.77067 57.362 5.248ZM53.134 5.458H53.386L53.568 5.402L54.338 5.878C54.1793 6.31667 53.9787 6.77867 53.736 7.264C53.5027 7.74933 53.2787 8.16467 53.064 8.51C52.9613 8.41667 52.826 8.32333 52.658 8.23C52.4993 8.13667 52.3593 8.062 52.238 8.006C52.35 7.782 52.462 7.53467 52.574 7.264C52.6953 6.99333 52.8027 6.718 52.896 6.438C52.9987 6.14867 53.078 5.892 53.134 5.668V5.458Z" fill="#31D0AA"/>
<circle cx="48.5" cy="76" r="45" stroke="#31D0AA" stroke-width="6"/>
<path d="M42.5013 86.0082L34.1733 77.6802C33.2373 76.7442 31.1013 76.4801 29.9012 77.6802C28.9652 78.6162 28.9652 81.0642 29.9012 82.0002L39.5012 92.2002C40.4372 93.1362 43.9652 93.1362 44.9012 92.2002L57.5012 79.6002L71.3012 66.4002C72.2372 65.4642 72.2372 63.2561 71.3012 62.3201C70.1012 61.1201 67.1493 61.3842 66.2133 62.3202L42.5013 86.0082Z" fill="#31D0AA"/>
</svg>
