<svg width="97" height="124" viewBox="0 0 97 124" fill="none" xmlns="http://www.w3.org/2000/svg">
<path d="M40.45 6.536L47.324 5.962L47.422 7.026L40.534 7.628L40.45 6.536ZM40.814 8.664L47.142 8.062L47.254 9.098L40.926 9.714L40.814 8.664ZM40.45 10.848L47.744 10.106L47.856 11.17L40.576 11.94L40.45 10.848ZM42.508 4.114H43.81C43.81 5.13133 43.838 6.12533 43.894 7.096C43.9593 8.06667 44.0527 8.99067 44.174 9.868C44.2953 10.736 44.44 11.5387 44.608 12.276C44.776 13.004 44.9673 13.634 45.182 14.166C45.3967 14.698 45.6253 15.1133 45.868 15.412C46.12 15.7013 46.3767 15.846 46.638 15.846C46.806 15.846 46.9273 15.7247 47.002 15.482C47.086 15.23 47.1513 14.7773 47.198 14.124C47.3193 14.2733 47.4687 14.4133 47.646 14.544C47.8327 14.6653 48.0007 14.7587 48.15 14.824C48.0753 15.4213 47.9727 15.8833 47.842 16.21C47.7207 16.546 47.5527 16.7793 47.338 16.91C47.1233 17.05 46.848 17.12 46.512 17.12C46.036 17.12 45.6067 16.952 45.224 16.616C44.8507 16.28 44.5147 15.8087 44.216 15.202C43.9267 14.5953 43.6747 13.8813 43.46 13.06C43.2547 12.2387 43.082 11.3473 42.942 10.386C42.802 9.41533 42.6947 8.398 42.62 7.334C42.5547 6.27 42.5173 5.19667 42.508 4.114ZM44.426 4.772L45.168 4.016C45.5133 4.156 45.8727 4.338 46.246 4.562C46.6287 4.786 46.9227 5.00067 47.128 5.206L46.358 6.046C46.162 5.83133 45.8773 5.60733 45.504 5.374C45.14 5.13133 44.7807 4.93067 44.426 4.772ZM46.54 11.324L47.492 11.996C47.016 12.724 46.4047 13.4147 45.658 14.068C44.9207 14.7213 44.104 15.3047 43.208 15.818C42.312 16.3313 41.3927 16.7327 40.45 17.022C40.3753 16.8633 40.2727 16.6767 40.142 16.462C40.0113 16.2473 39.8713 16.0653 39.722 15.916C40.422 15.7387 41.108 15.496 41.78 15.188C42.4613 14.88 43.1007 14.5253 43.698 14.124C44.3047 13.7227 44.8507 13.284 45.336 12.808C45.8213 12.3227 46.2227 11.828 46.54 11.324ZM35.172 4.842H40.604V6.046H35.172V4.842ZM36.922 7.684H39.47V8.874H36.922V7.684ZM35.956 11.072L36.628 10.134C36.9173 10.302 37.2113 10.498 37.51 10.722C37.818 10.9367 38.1027 11.156 38.364 11.38C38.6253 11.604 38.8307 11.8093 38.98 11.996L38.266 13.06C38.1167 12.864 37.9113 12.6493 37.65 12.416C37.398 12.1733 37.1227 11.9353 36.824 11.702C36.5253 11.4687 36.236 11.2587 35.956 11.072ZM36.936 5.206L38.196 5.402C38.0467 6.30733 37.8553 7.18467 37.622 8.034C37.398 8.874 37.1273 9.658 36.81 10.386C36.502 11.1047 36.1473 11.7393 35.746 12.29C35.6807 12.206 35.5873 12.1127 35.466 12.01C35.3447 11.898 35.2187 11.7907 35.088 11.688C34.9573 11.576 34.8453 11.492 34.752 11.436C35.1347 10.9413 35.466 10.3673 35.746 9.714C36.026 9.06067 36.264 8.35133 36.46 7.586C36.656 6.81133 36.8147 6.018 36.936 5.206ZM39.106 7.684H39.344L39.554 7.642L40.324 7.866C40.0627 10.1713 39.582 12.1033 38.882 13.662C38.182 15.2113 37.314 16.3873 36.278 17.19C36.2127 17.0967 36.124 16.9893 36.012 16.868C35.9093 16.7467 35.7973 16.63 35.676 16.518C35.5547 16.4153 35.4473 16.336 35.354 16.28C36.3713 15.5427 37.1973 14.4787 37.832 13.088C38.476 11.6973 38.9007 9.98467 39.106 7.95V7.684ZM52.686 12.836H54.002V15.342C54.002 15.538 54.044 15.664 54.128 15.72C54.2213 15.7667 54.422 15.79 54.73 15.79C54.8047 15.79 54.9307 15.79 55.108 15.79C55.2853 15.79 55.4813 15.79 55.696 15.79C55.92 15.79 56.1253 15.79 56.312 15.79C56.508 15.79 56.6527 15.79 56.746 15.79C56.9327 15.79 57.0727 15.7573 57.166 15.692C57.2593 15.6173 57.32 15.468 57.348 15.244C57.3853 15.0107 57.4133 14.656 57.432 14.18C57.5253 14.2547 57.642 14.3247 57.782 14.39C57.922 14.4553 58.0667 14.5113 58.216 14.558C58.3747 14.6047 58.51 14.6467 58.622 14.684C58.5753 15.2907 58.4913 15.762 58.37 16.098C58.2487 16.434 58.0713 16.6627 57.838 16.784C57.6047 16.9147 57.278 16.98 56.858 16.98C56.7927 16.98 56.6853 16.98 56.536 16.98C56.3867 16.98 56.214 16.98 56.018 16.98C55.822 16.98 55.626 16.98 55.43 16.98C55.234 16.98 55.0613 16.98 54.912 16.98C54.7627 16.98 54.6553 16.98 54.59 16.98C54.086 16.98 53.694 16.9287 53.414 16.826C53.1433 16.7327 52.952 16.5647 52.84 16.322C52.7373 16.0887 52.686 15.7667 52.686 15.356V12.836ZM53.414 12.066L54.24 11.198C54.576 11.3473 54.9167 11.5247 55.262 11.73C55.6167 11.9353 55.948 12.15 56.256 12.374C56.564 12.598 56.8113 12.8173 56.998 13.032L56.102 13.97C55.9247 13.7553 55.6867 13.5313 55.388 13.298C55.0987 13.0647 54.7813 12.8407 54.436 12.626C54.0907 12.4113 53.75 12.2247 53.414 12.066ZM58.216 13.214L59.322 12.57C59.6673 12.8873 60.0127 13.2373 60.358 13.62C60.7033 13.9933 61.016 14.3713 61.296 14.754C61.576 15.1367 61.7907 15.496 61.94 15.832L60.75 16.56C60.61 16.2333 60.4047 15.8787 60.134 15.496C59.8727 15.104 59.574 14.7073 59.238 14.306C58.9113 13.9047 58.5707 13.5407 58.216 13.214ZM50.88 12.724L52.07 13.116C51.9673 13.5547 51.8273 13.998 51.65 14.446C51.482 14.8847 51.2673 15.2953 51.006 15.678C50.754 16.0607 50.446 16.3967 50.082 16.686L48.99 15.93C49.3167 15.6873 49.6013 15.3933 49.844 15.048C50.096 14.7027 50.306 14.334 50.474 13.942C50.6513 13.5407 50.7867 13.1347 50.88 12.724ZM50.908 9.084H58.762V10.218H50.908V9.084ZM52.938 7.18H57.978V8.23H52.938V7.18ZM55.416 5.36C55.024 5.808 54.5247 6.26533 53.918 6.732C53.3207 7.18933 52.658 7.62333 51.93 8.034C51.202 8.43533 50.4647 8.78533 49.718 9.084C49.662 8.972 49.592 8.846 49.508 8.706C49.424 8.566 49.3353 8.43067 49.242 8.3C49.1487 8.16 49.0553 8.04333 48.962 7.95C49.7367 7.67 50.488 7.32933 51.216 6.928C51.9533 6.52667 52.6207 6.088 53.218 5.612C53.8153 5.136 54.3007 4.66467 54.674 4.198H56.032C56.5453 4.73933 57.1287 5.248 57.782 5.724C58.4353 6.19067 59.126 6.60133 59.854 6.956C60.582 7.30133 61.3053 7.586 62.024 7.81C61.8747 7.96867 61.7253 8.16467 61.576 8.398C61.4267 8.622 61.3007 8.82733 61.198 9.014C60.694 8.818 60.1713 8.58933 59.63 8.328C59.0887 8.05733 58.5567 7.76333 58.034 7.446C57.5207 7.11933 57.0353 6.77867 56.578 6.424C56.13 6.06933 55.7427 5.71467 55.416 5.36ZM58.384 9.084H58.664L58.874 9.028L59.756 9.56C59.588 9.924 59.378 10.3067 59.126 10.708C58.874 11.1093 58.608 11.5013 58.328 11.884C58.0573 12.2573 57.796 12.5887 57.544 12.878C57.4133 12.7753 57.25 12.6633 57.054 12.542C56.858 12.4207 56.6807 12.3227 56.522 12.248C56.7647 11.9773 57.0027 11.6693 57.236 11.324C57.4787 10.9787 57.7027 10.6287 57.908 10.274C58.1133 9.91933 58.272 9.60667 58.384 9.336V9.084Z" fill="#FF0909"/>
<circle cx="48.5" cy="76" r="45" stroke="#FF0909" stroke-width="6"/>
<path d="M63.6191 60.9039C62.6831 59.9679 60.8352 59.4639 59.8992 60.3999L48.4991 71.1998L37.699 60.3999C36.763 59.4639 34.3151 59.9439 33.3791 60.8799C32.4431 61.8159 31.963 63.6638 32.899 64.5998L44.299 75.9998L32.899 87.3998C31.963 88.3358 32.4431 90.1839 33.3791 91.1199C34.3151 92.0559 36.163 92.0559 37.099 91.1199L48.4991 80.1998L59.8992 91.1199C60.8352 92.0559 62.6831 92.0559 63.6191 91.1199C64.5551 90.1839 65.035 87.7358 64.099 86.7998L52.699 75.9998L64.099 64.5998C65.011 63.6878 64.5311 61.8159 63.6191 60.9039Z" fill="#FF0909"/>
</svg>
