<svg width="597" height="125" viewBox="0 0 597 125" fill="none" xmlns="http://www.w3.org/2000/svg">
<path d="M7.90654 124.089C4.97325 122.873 2.62695 120.527 1.41056 117.593L1.87243 117.402C1.31043 116.047 1 114.56 1 113V107.95H0.5V97.85H1V87.75H0.5V77.65H1V67.55H0.5V57.45H1V47.35H0.5V37.25H1V27.15H0.5V17.05H1V12C1 10.4398 1.31043 8.95332 1.87243 7.59808L1.41057 7.40655C2.62695 4.47326 4.97326 2.12695 7.90654 0.910567L8.09807 1.37243C9.45332 0.810432 10.9398 0.5 12.5 0.5H17.6069V0H27.8212V0.5H38.0355V0H48.2498V0.5H58.4641V0H68.6784V0.5H78.8927V0H89.107V0.5H99.3213V0H109.536V0.5H119.75V0H129.964V0.5H140.178V0H150.393V0.5H160.607V0H170.821V0.5H181.036V0H191.25V0.5H201.464V0H211.679V0.5H221.893V0H232.107V0.5H242.321V0H252.536V0.5H262.75V0H272.964V0.5H283.179V0H293.393V0.5H303.607V0H313.821V0.5H324.036V0H334.25V0.5H344.464V0H354.679V0.5H364.893V0H375.107V0.5H385.321V0H395.536V0.5H405.75V0H415.964V0.5H426.179V0H436.393V0.5H446.607V0H456.821V0.5H467.036V0H477.25V0.5H487.464V0H497.679V0.5H507.893V0H518.107V0.5H528.321V0H538.536V0.5H548.75V0H558.964V0.5H569.179V0H579.393V0.5H584.5C586.06 0.5 587.547 0.810431 588.902 1.37243L589.093 0.910559C592.027 2.12694 594.373 4.47325 595.589 7.40654L595.128 7.59807C595.69 8.95332 596 10.4398 596 12V17.05H596.5V27.15H596V37.25H596.5V47.35H596V57.45H596.5V67.55H596V77.65H596.5V87.75H596V97.85H596.5V107.95H596V113C596 114.56 595.69 116.047 595.128 117.402L595.589 117.593C594.373 120.527 592.027 122.873 589.093 124.089L588.902 123.628C587.547 124.19 586.06 124.5 584.5 124.5H579.393V125H569.179V124.5H558.964V125H548.75V124.5H538.536V125H528.322V124.5H518.107V125H507.893V124.5H497.679V125H487.464V124.5H477.25V125H467.036V124.5H456.822V125H446.607V124.5H436.393V125H426.179V124.5H415.964V125H405.75V124.5H395.536V125H385.321V124.5H375.107V125H364.893V124.5H354.679V125H344.464V124.5H334.25V125H324.036V124.5H313.821V125H303.607V124.5H293.393V125H283.179V124.5H272.964V125H262.75V124.5H252.536V125H242.321V124.5H232.107V125H221.893V124.5H211.679V125H201.464V124.5H191.25V125H181.036V124.5H170.821V125H160.607V124.5H150.393V125H140.179V124.5H129.964V125H119.75V124.5H109.536V125H99.3214V124.5H89.1071V125H78.8929V124.5H68.6786V125H58.4643V124.5H48.25V125H38.0357V124.5H27.8214V125H17.6071V124.5H12.5C10.9398 124.5 9.45331 124.19 8.09806 123.628L7.90654 124.089Z" stroke="#6A6A6A" stroke-dasharray="10.27 10.27"/>
</svg>
