<svg width="24" height="29" viewBox="0 0 24 29" fill="none" xmlns="http://www.w3.org/2000/svg">
<path d="M21.3333 0.666504H2.66667C1.18667 0.666504 0 1.8665 0 3.33317V21.9998C0 23.4665 1.2 24.6665 2.66667 24.6665H8L11.0533 27.7198C11.5733 28.2398 12.4133 28.2398 12.9333 27.7198L16 24.6665H21.3333C22.8 24.6665 24 23.4665 24 21.9998V3.33317C24 1.8665 22.8 0.666504 21.3333 0.666504ZM13.3333 21.9998H10.6667V19.3332H13.3333V21.9998ZM16.0933 11.6665L14.8933 12.8932C14.12 13.6798 13.5733 14.3598 13.4 15.6398C13.32 16.2132 12.8533 16.6532 12.2667 16.6532H11.8533C11.16 16.6532 10.6267 16.0398 10.72 15.3465C10.8667 14.1332 11.4267 13.0532 12.24 12.2265L13.8933 10.5465C14.3733 10.0665 14.6667 9.39984 14.6667 8.6665C14.6667 7.19984 13.4667 5.99984 12 5.99984C10.84 5.99984 9.84 6.75984 9.48 7.79984C9.30667 8.29317 8.89333 8.65317 8.37333 8.65317H7.97333C7.2 8.65317 6.66667 7.9065 6.88 7.15984C7.53333 4.9465 9.57333 3.33317 12 3.33317C14.9467 3.33317 17.3333 5.71984 17.3333 8.6665C17.3333 9.83984 16.8533 10.9065 16.0933 11.6665Z" fill="#E13A4B" fill-opacity="0.5"/>
</svg>
