<svg width="32" height="32" viewBox="0 0 32 32" fill="none" xmlns="http://www.w3.org/2000/svg">
<path d="M25.3333 2.6665H6.66667C5.18667 2.6665 4 3.8665 4 5.33317V23.9998C4 25.4665 5.2 26.6665 6.66667 26.6665H12L15.0533 29.7198C15.5733 30.2398 16.4133 30.2398 16.9333 29.7198L20 26.6665H25.3333C26.8 26.6665 28 25.4665 28 23.9998V5.33317C28 3.8665 26.8 2.6665 25.3333 2.6665ZM17.3333 23.9998H14.6667V21.3332H17.3333V23.9998ZM20.0933 13.6665L18.8933 14.8932C18.12 15.6798 17.5733 16.3598 17.4 17.6398C17.32 18.2132 16.8533 18.6532 16.2667 18.6532H15.8533C15.16 18.6532 14.6267 18.0398 14.72 17.3465C14.8667 16.1332 15.4267 15.0532 16.24 14.2265L17.8933 12.5465C18.3733 12.0665 18.6667 11.3998 18.6667 10.6665C18.6667 9.19984 17.4667 7.99984 16 7.99984C14.84 7.99984 13.84 8.75984 13.48 9.79984C13.3067 10.2932 12.8933 10.6532 12.3733 10.6532H11.9733C11.2 10.6532 10.6667 9.9065 10.88 9.15984C11.5333 6.9465 13.5733 5.33317 16 5.33317C18.9467 5.33317 21.3333 7.71984 21.3333 10.6665C21.3333 11.8398 20.8533 12.9065 20.0933 13.6665Z" fill="#E13A4B"/>
</svg>
