<svg width="33" height="32" viewBox="0 0 33 32" fill="none" xmlns="http://www.w3.org/2000/svg">
<g clip-path="url(#clip0_114_4620)">
<path d="M4.98047 14.6667H15.6471V4H4.98047V14.6667ZM7.64714 6.66667H12.9805V12H7.64714V6.66667Z" fill="#BDBDBD"/>
<path d="M4.98047 28.0002H15.6471V17.3335H4.98047V28.0002ZM7.64714 20.0002H12.9805V25.3335H7.64714V20.0002Z" fill="#BDBDBD"/>
<path d="M18.3125 4V14.6667H28.9792V4H18.3125ZM26.3125 12H20.9792V6.66667H26.3125V12Z" fill="#BDBDBD"/>
<path d="M28.9792 25.333H26.3125V27.9997H28.9792V25.333Z" fill="#BDBDBD"/>
<path d="M20.9792 17.333H18.3125V19.9997H20.9792V17.333Z" fill="#BDBDBD"/>
<path d="M23.6471 20H20.9805V22.6667H23.6471V20Z" fill="#BDBDBD"/>
<path d="M20.9792 22.667H18.3125V25.3337H20.9792V22.667Z" fill="#BDBDBD"/>
<path d="M23.6471 25.3335H20.9805V28.0002H23.6471V25.3335Z" fill="#BDBDBD"/>
<path d="M26.3151 22.667H23.6484V25.3337H26.3151V22.667Z" fill="#BDBDBD"/>
<path d="M26.3151 17.333H23.6484V19.9997H26.3151V17.333Z" fill="#BDBDBD"/>
<path d="M28.9792 20H26.3125V22.6667H28.9792V20Z" fill="#BDBDBD"/>
</g>
<defs>
<clipPath id="clip0_114_4620">
<rect width="32" height="32" fill="white" transform="translate(0.980469)"/>
</clipPath>
</defs>
</svg>
