<svg width="53" height="52" viewBox="0 0 53 52" fill="none" xmlns="http://www.w3.org/2000/svg">
<mask id="path-1-inside-1_256_213" fill="white">
<path d="M52.5 5C52.5 2.23858 50.2614 0 47.5 0H5.63559C2.87417 0 0.63559 2.23858 0.63559 5V46.8644C0.63559 49.6258 2.87416 51.8644 5.63559 51.8644H47.5C50.2614 51.8644 52.5 49.6258 52.5 46.8644V5Z"/>
</mask>
<path d="M57.5 5C57.5 -0.522847 53.0228 -5 47.5 -5H10.6356C5.11274 -5 0.63559 -0.522847 0.63559 5C0.63559 5 2.87416 5 5.63559 5H47.5H57.5ZM0.63559 51.8644H52.5H0.63559ZM47.5 51.8644C53.0228 51.8644 57.5 47.3873 57.5 41.8644V5C57.5 -0.522847 53.0228 -5 47.5 -5V5V46.8644C47.5 49.6258 47.5 51.8644 47.5 51.8644ZM0.63559 0V51.8644V0Z" fill="#E13A4B" mask="url(#path-1-inside-1_256_213)"/>
</svg>
