<svg width="15" height="18" viewBox="0 0 15 18" fill="none" xmlns="http://www.w3.org/2000/svg">
<path d="M12.5 12.602C11.8667 12.602 11.3 12.852 10.8667 13.2437L4.925 9.78532C4.96667 9.59365 5 9.40199 5 9.20199C5 9.00199 4.96667 8.81032 4.925 8.61865L10.8 5.19365C11.25 5.61032 11.8417 5.86865 12.5 5.86865C13.8833 5.86865 15 4.75199 15 3.36865C15 1.98532 13.8833 0.868652 12.5 0.868652C11.1167 0.868652 10 1.98532 10 3.36865C10 3.56865 10.0333 3.76032 10.075 3.95199L4.2 7.37699C3.75 6.96032 3.15833 6.70199 2.5 6.70199C1.11667 6.70199 0 7.81865 0 9.20199C0 10.5853 1.11667 11.702 2.5 11.702C3.15833 11.702 3.75 11.4437 4.2 11.027L10.1333 14.4937C10.0917 14.6687 10.0667 14.852 10.0667 15.0353C10.0667 16.377 11.1583 17.4687 12.5 17.4687C13.8417 17.4687 14.9333 16.377 14.9333 15.0353C14.9333 13.6937 13.8417 12.602 12.5 12.602Z" fill="white"/>
</svg>
