<svg width="20" height="20" viewBox="0 0 20 20" fill="none" xmlns="http://www.w3.org/2000/svg">
<g clip-path="url(#clip0_151_19588)">
<rect width="20" height="20" rx="10" fill="white"/>
<path fill-rule="evenodd" clip-rule="evenodd" d="M0 0H12V9.33333H0V0Z" fill="#1A47B8"/>
<path fill-rule="evenodd" clip-rule="evenodd" d="M12 0V1.33333H28V0H12ZM12 2.66667V4H28V2.66667H12ZM12 5.33333V6.66667H28V5.33333H12ZM12 8V9.33333H28V8H12ZM0 10.6667V12H28V10.6667H0ZM0 13.3333V14.6667H28V13.3333H0ZM0 16V17.3333H28V16H0ZM0 18.6667V20H28V18.6667H0Z" fill="#F93939"/>
<path fill-rule="evenodd" clip-rule="evenodd" d="M1.33398 1.33325V2.66659H2.66732V1.33325H1.33398ZM4.00065 1.33325V2.66659H5.33398V1.33325H4.00065ZM6.66732 1.33325V2.66659H8.00065V1.33325H6.66732ZM9.33398 1.33325V2.66659H10.6673V1.33325H9.33398ZM8.00065 2.66659V3.99992H9.33398V2.66659H8.00065ZM5.33398 2.66659V3.99992H6.66732V2.66659H5.33398ZM2.66732 2.66659V3.99992H4.00065V2.66659H2.66732ZM1.33398 3.99992V5.33325H2.66732V3.99992H1.33398ZM4.00065 3.99992V5.33325H5.33398V3.99992H4.00065ZM6.66732 3.99992V5.33325H8.00065V3.99992H6.66732ZM9.33398 3.99992V5.33325H10.6673V3.99992H9.33398ZM1.33398 6.66658V7.99992H2.66732V6.66658H1.33398ZM4.00065 6.66658V7.99992H5.33398V6.66658H4.00065ZM6.66732 6.66658V7.99992H8.00065V6.66658H6.66732ZM9.33398 6.66658V7.99992H10.6673V6.66658H9.33398ZM8.00065 5.33325V6.66658H9.33398V5.33325H8.00065ZM5.33398 5.33325V6.66658H6.66732V5.33325H5.33398ZM2.66732 5.33325V6.66658H4.00065V5.33325H2.66732Z" fill="white"/>
</g>
<defs>
<clipPath id="clip0_151_19588">
<rect width="20" height="20" rx="10" fill="white"/>
</clipPath>
</defs>
</svg>
