<svg width="40" height="40" viewBox="0 0 40 40" fill="none" xmlns="http://www.w3.org/2000/svg">
<circle cx="20" cy="20.0078" r="20" fill="#2E7CF6" fill-opacity="0.2"/>
<path d="M19 10.0078H17C12 10.0078 10 12.0078 10 17.0078V23.0078C10 28.0078 12 30.0078 17 30.0078H23C28 30.0078 30 28.0078 30 23.0078V21.0078" stroke="#2E7CF6" stroke-width="1.5" stroke-linecap="round" stroke-linejoin="round"/>
<path d="M24.04 11.0281L16.16 18.9081C15.86 19.2081 15.56 19.7981 15.5 20.2281L15.07 23.2381C14.91 24.3281 15.68 25.0881 16.77 24.9381L19.78 24.5081C20.2 24.4481 20.79 24.1481 21.1 23.8481L28.98 15.9681C30.34 14.6081 30.98 13.0281 28.98 11.0281C26.98 9.02807 25.4 9.66807 24.04 11.0281Z" stroke="#2E7CF6" stroke-width="1.5" stroke-miterlimit="10" stroke-linecap="round" stroke-linejoin="round"/>
<path d="M22.91 12.1582C23.58 14.5482 25.45 16.4182 27.85 17.0982" stroke="#2E7CF6" stroke-width="1.5" stroke-miterlimit="10" stroke-linecap="round" stroke-linejoin="round"/>
</svg>
