<svg width="20" height="20" viewBox="0 0 20 20" fill="none" xmlns="http://www.w3.org/2000/svg">
<path d="M15 0.433594H5C2 0.433594 0 2.43359 0 5.43359V11.4336C0 14.4336 2 16.4336 5 16.4336V18.5636C5 19.3636 5.89 19.8436 6.55 19.3936L11 16.4336H15C18 16.4336 20 14.4336 20 11.4336V5.43359C20 2.43359 18 0.433594 15 0.433594ZM10 12.6036C9.58 12.6036 9.25 12.2636 9.25 11.8536C9.25 11.4436 9.58 11.1036 10 11.1036C10.42 11.1036 10.75 11.4436 10.75 11.8536C10.75 12.2636 10.42 12.6036 10 12.6036ZM11.26 8.45359C10.87 8.71359 10.75 8.88359 10.75 9.16359V9.37359C10.75 9.78359 10.41 10.1236 10 10.1236C9.59 10.1236 9.25 9.78359 9.25 9.37359V9.16359C9.25 8.00359 10.1 7.43359 10.42 7.21359C10.79 6.96359 10.91 6.79359 10.91 6.53359C10.91 6.03359 10.5 5.62359 10 5.62359C9.5 5.62359 9.09 6.03359 9.09 6.53359C9.09 6.94359 8.75 7.28359 8.34 7.28359C7.93 7.28359 7.59 6.94359 7.59 6.53359C7.59 5.20359 8.67 4.12359 10 4.12359C11.33 4.12359 12.41 5.20359 12.41 6.53359C12.41 7.67359 11.57 8.24359 11.26 8.45359Z" fill="white"/>
</svg>
