<svg width="41" height="36" viewBox="0 0 41 36" fill="none" xmlns="http://www.w3.org/2000/svg">
<path d="M12.875 7.375C14.9062 7.375 16.625 9.09375 16.625 11.125C16.625 13.2344 14.9062 14.875 12.875 14.875C10.7656 14.875 9.125 13.2344 9.125 11.125C9.125 9.09375 10.7656 7.375 12.875 7.375ZM35.9219 0.5C38.7344 0.5 40.9219 2.76562 40.9219 5.5V30.5C40.9219 33.3125 38.6562 35.5 35.9219 35.5H5.92188C3.1875 35.5 0.921875 33.3125 0.921875 30.5V5.5C0.921875 2.76562 3.1875 0.5 5.92188 0.5H35.9219ZM37.1719 30.0312V5.5C37.1719 4.875 36.625 4.25 35.9219 4.25H5.92188C5.29688 4.25 4.67188 4.875 4.67188 5.5L4.75 30.5L10.6094 23.1562C10.9219 22.8438 11.3125 22.6094 11.7812 22.6094C12.25 22.6094 12.6406 22.8438 12.9531 23.1562L15.8438 26.75L24.125 15.5C24.4375 15.1094 24.8281 14.875 25.375 14.875C25.8438 14.875 26.2344 15.1094 26.4688 15.5L37.1719 30.0312Z" fill="#BCC2C5"/>
</svg>
