<svg width="40" height="40" viewBox="0 0 40 40" fill="none" xmlns="http://www.w3.org/2000/svg">
<circle cx="20" cy="20.0078" r="20" fill="#E13A4B" fill-opacity="0.2"/>
<path d="M29 13.9883C25.67 13.6583 22.32 13.4883 18.98 13.4883C17 13.4883 15.02 13.5883 13.04 13.7883L11 13.9883" stroke="#E13A4B" stroke-width="1.5" stroke-linecap="round" stroke-linejoin="round"/>
<path d="M16.5 12.9778L16.72 11.6678C16.88 10.7178 17 10.0078 18.69 10.0078H21.31C23 10.0078 23.13 10.7578 23.28 11.6778L23.5 12.9778" stroke="#E13A4B" stroke-width="1.5" stroke-linecap="round" stroke-linejoin="round"/>
<path d="M26.85 17.1475L26.2 27.2175C26.09 28.7875 26 30.0075 23.21 30.0075H16.79C14 30.0075 13.91 28.7875 13.8 27.2175L13.15 17.1475" stroke="#E13A4B" stroke-width="1.5" stroke-linecap="round" stroke-linejoin="round"/>
<path d="M18.33 24.5078H21.66" stroke="#E13A4B" stroke-width="1.5" stroke-linecap="round" stroke-linejoin="round"/>
<path d="M17.5 20.5078H22.5" stroke="#E13A4B" stroke-width="1.5" stroke-linecap="round" stroke-linejoin="round"/>
</svg>
