<svg width="33" height="32" viewBox="0 0 33 32" fill="none" xmlns="http://www.w3.org/2000/svg">
<path d="M20.614 16.7087C20.269 16.2775 19.6397 16.2075 19.2084 16.5525L17.4998 17.9194V13.3334C17.4998 12.7811 17.0521 12.3334 16.4998 12.3334C15.9476 12.3334 15.4998 12.7811 15.4998 13.3334V17.9195L13.7912 16.5525C13.3599 16.2075 12.7306 16.2775 12.3856 16.7087C12.0406 17.14 12.1105 17.7693 12.5418 18.1143L15.8715 20.7781C16.0432 20.9169 16.2618 21.0001 16.4998 21.0001C16.7399 21.0001 16.9602 20.9155 17.1326 20.7745L20.4578 18.1143C20.8891 17.7693 20.959 17.14 20.614 16.7087Z" fill="white"/>
<path fill-rule="evenodd" clip-rule="evenodd" d="M11.7803 9.7119C13.0372 7.76987 15.2235 6.48242 17.712 6.48242C21.4636 6.48242 24.5318 9.40842 24.7591 13.1028C24.834 13.1 24.9092 13.0986 24.9847 13.0986C28.2147 13.0986 30.8332 15.717 30.8332 18.947C30.8332 22.1771 28.2147 24.7955 24.9847 24.7955L9.83317 24.7955C5.59899 24.7955 2.1665 21.363 2.1665 17.1289C2.1665 12.8947 5.59899 9.4622 9.83317 9.4622C10.505 9.4622 11.1578 9.54886 11.7803 9.7119ZM17.712 8.48242C15.7052 8.48242 13.9693 9.65039 13.1506 11.3481C12.9239 11.8183 12.3737 12.0349 11.8872 11.8457C11.2517 11.5984 10.5595 11.4622 9.83317 11.4622C6.70356 11.4622 4.1665 13.9992 4.1665 17.1289C4.1665 20.2585 6.70356 22.7955 9.83317 22.7955L24.9834 22.7955C27.1089 22.7955 28.8332 21.0725 28.8332 18.947C28.8332 16.8216 27.1101 15.0986 24.9847 15.0986C24.6388 15.0986 24.305 15.1439 23.9884 15.2285C23.6681 15.3141 23.3262 15.2353 23.0756 15.0183C22.8251 14.8013 22.6983 14.4742 22.7372 14.1449C22.7605 13.9479 22.7726 13.7471 22.7726 13.543C22.7726 10.7481 20.5069 8.48242 17.712 8.48242Z" fill="white"/>
</svg>
