<svg width="32" height="33" viewBox="0 0 32 33" fill="none" xmlns="http://www.w3.org/2000/svg">
<path d="M21.3332 17.4083V23.0083C21.3332 27.675 19.4665 29.5417 14.7998 29.5417H9.19984C4.53317 29.5417 2.6665 27.675 2.6665 23.0083V17.4083C2.6665 12.7417 4.53317 10.875 9.19984 10.875H14.7998C19.4665 10.875 21.3332 12.7417 21.3332 17.4083Z" fill="#C2C2C7"/>
<path d="M22.7996 2.875H17.1996C13.0888 2.875 11.1609 4.33379 10.7592 7.86035C10.6752 8.59813 11.2862 9.20833 12.0288 9.20833H14.7996C20.3996 9.20833 22.9996 11.8083 22.9996 17.4083V20.1791C22.9996 20.9217 23.6097 21.5327 24.3476 21.4487C27.8741 21.047 29.3329 19.1191 29.3329 15.0083V9.40833C29.3329 4.74167 27.4663 2.875 22.7996 2.875Z" fill="#C2C2C7"/>
</svg>
