<svg width="34" height="24" viewBox="0 0 34 24" fill="none" xmlns="http://www.w3.org/2000/svg">
<path fill-rule="evenodd" clip-rule="evenodd" d="M1.15022 2.93095C0.702393 3.81178 0.702393 4.96427 0.702393 7.26925V17.1477C0.702393 19.4527 0.702393 20.6052 1.15022 21.486C1.54518 22.2603 2.17512 22.8897 2.94975 23.2839C3.83058 23.7334 4.98307 23.7334 7.28805 23.7334H27.045C29.35 23.7334 30.5025 23.7334 31.3833 23.2839C32.1573 22.8894 32.7867 22.2601 33.1812 21.486C33.6307 20.6052 33.6307 19.4527 33.6307 17.1477V7.26925C33.6307 4.96427 33.6307 3.81178 33.1812 2.93095C32.787 2.15632 32.1576 1.52639 31.3833 1.13142C30.5025 0.683593 29.35 0.683594 27.045 0.683594H7.28805C4.98307 0.683594 3.83058 0.683593 2.94975 1.13142C2.17487 1.52611 1.5449 2.15607 1.15022 2.93095ZM5.06045 3.97642H29.2726C29.4494 3.97621 29.6215 4.03289 29.7636 4.13809C29.9056 4.24329 30.01 4.39142 30.0614 4.56056C30.1127 4.7297 30.1082 4.91088 30.0486 5.07728C29.989 5.24368 29.8774 5.38648 29.7303 5.48454L18.0819 13.2754C17.811 13.4566 17.4925 13.5533 17.1665 13.5533C16.8406 13.5533 16.522 13.4566 16.2511 13.2754L4.60275 5.48454C4.45568 5.38648 4.34409 5.24368 4.28447 5.07728C4.22485 4.91088 4.22038 4.7297 4.27172 4.56056C4.32305 4.39142 4.42746 4.24329 4.56951 4.13809C4.71156 4.03289 4.88369 3.97621 5.06045 3.97642Z" fill="#4B4B4D"/>
</svg>
