<svg width="30" height="28" viewBox="0 0 30 28" fill="none" xmlns="http://www.w3.org/2000/svg">
<path d="M14.9942 0.55957C22.9574 0.55957 29.3691 5.75621 29.3691 12.2108C29.3691 15.3542 27.8188 18.1195 25.3874 20.2987C21.4474 24.1959 14.6589 28.136 13.9468 27.8423C12.7733 27.3809 14.8265 24.8664 13.9884 23.7775C13.8623 23.6098 13.401 23.6514 12.5628 23.5254C5.64825 22.6027 0.702393 18.035 0.702393 12.1679C0.702393 5.71329 7.07246 0.55957 14.9928 0.55957H14.9942ZM6.82303 16.065H9.25438C9.67414 16.065 9.92492 15.7297 9.92492 15.31C9.92492 15.0163 9.71571 14.6394 9.1699 14.6394H7.19987C7.03223 14.6394 7.03223 14.4718 7.03223 13.8844V9.65201C7.03223 9.27517 6.78011 8.89699 6.32013 8.89699C5.90037 8.89699 5.60802 9.23226 5.60802 9.65201V14.7655C5.60802 15.8974 6.15249 16.065 6.82303 16.065ZM12.312 15.479V9.65335C12.312 9.27651 12.0183 8.89833 11.557 8.89833C11.1802 8.89833 10.8449 9.2336 10.8449 9.65335V15.479C10.8449 15.8558 11.1386 16.1495 11.5999 16.1495C11.9768 16.1495 12.312 15.8558 12.312 15.479ZM19.185 14.6824V9.56886C19.185 9.19203 18.8913 8.89833 18.43 8.89833C18.0947 8.89833 17.7179 9.10754 17.7179 9.56886V13.2568L15.2865 9.86256C14.9512 9.27517 14.5315 8.89833 14.0286 8.89833C13.3996 8.89833 13.3581 9.40123 13.3581 10.1133V15.4776C13.3581 15.8545 13.6517 16.1481 14.0702 16.1481C14.447 16.1481 14.7823 15.896 14.7823 15.4776V11.6636L17.2136 15.0579C17.7581 15.77 17.8842 16.1481 18.5547 16.1481C19.016 16.1481 19.1836 15.7284 19.1836 14.681L19.185 14.6824ZM23.8787 11.791H21.7411V10.576C21.7411 10.4499 21.7826 10.2823 21.9932 10.2823H23.8787C24.3401 10.2823 24.6337 10.0302 24.6337 9.57021C24.6337 9.02573 24.214 8.8581 23.8372 8.8581H21.4058C20.6508 8.8581 20.2739 9.361 20.2739 10.0315V14.7668C20.2739 15.605 20.6092 16.0663 21.4058 16.0663H23.8787C24.4232 16.0663 24.6337 15.7311 24.6337 15.3113C24.6337 14.7668 24.214 14.5992 23.8787 14.5992H22.0348C21.8671 14.5992 21.7411 14.4732 21.7411 14.3471V13.1737H23.9619C24.5063 13.1737 24.5908 12.7539 24.5908 12.4615C24.5908 12.0418 24.2556 11.791 23.8787 11.791Z" fill="#4B4B4D"/>
</svg>
